<svg width="221" height="248" viewBox="0 0 221 248" fill="none" xmlns="http://www.w3.org/2000/svg">
<path fill-rule="evenodd" clip-rule="evenodd" d="M220.038 72.7762C220.036 68.614 219.147 64.9361 217.348 61.7803C215.581 58.6755 212.936 56.0738 209.387 54.0168C196.836 46.7733 184.279 39.5391 171.723 32.305L171.711 32.2984C154.965 22.6503 138.218 13.0021 121.484 3.33142C113.589 -1.23068 105.934 -1.0635 98.0975 3.56409C91.0781 7.707 67.1279 21.4878 45.3802 34.0013C31.0021 42.2744 17.5867 49.9935 10.6631 54.0074C3.49899 58.1593 0.0129146 64.5121 0.0111926 72.7685C0.00559632 89.7686 0.00559632 106.769 0.00559632 123.769C0.00559632 140.769 0.00559632 157.769 0 174.769C0 178.84 0.853224 182.447 2.57259 185.556C4.34016 188.754 7.02295 191.427 10.6537 193.53C17.5422 197.524 30.8575 205.184 45.1537 213.409L45.1583 213.412L45.1642 213.415C66.9696 225.96 91.0536 239.816 98.094 243.974C105.934 248.604 113.589 248.769 121.487 244.206C138.477 234.388 155.48 224.592 172.483 214.797L172.505 214.784C184.804 207.699 197.102 200.614 209.396 193.52C213.027 191.417 215.71 188.743 217.477 185.547C219.194 182.438 220.049 178.832 220.049 174.76C220.049 174.76 220.049 106.777 220.038 72.7762ZM173.823 100.216V111.827H185.424V100.216H191.225V111.827H202.825V117.633H191.225V129.243H202.825V135.049H191.225V146.66H185.424V135.049H173.823V146.66H168.023V135.049H156.423V129.243H168.023V117.633H156.423V111.827H168.023V100.216H173.823ZM185.424 117.632H173.823V129.243H185.424V117.632ZM181.423 82.7983C167.273 58.3505 140.856 41.9032 110.598 41.9032L110.597 41.9023C65.4236 41.9023 28.8047 78.5559 28.8047 123.768C28.8047 138.602 32.7471 152.511 39.6374 164.509C53.7522 189.086 80.2443 205.635 110.598 205.635L111.509 205.63C141.415 205.304 167.47 188.907 181.465 164.666L145.919 144.055C145.976 143.956 146.032 143.857 146.088 143.758L145.918 144.055L145.919 144.055C138.891 156.289 125.709 164.534 110.598 164.534C95.4586 164.534 82.2607 156.261 75.2404 143.994C71.7135 137.838 69.8614 130.864 69.8688 123.768C69.8688 101.255 88.1041 83.0034 110.597 83.0034L111.062 83.006C125.813 83.1714 138.671 91.1935 145.684 103.08L181.285 82.563L181.423 82.7983Z" fill="#45266D"/>
</svg>
