<svg width="280" height="250" viewBox="0 0 280 250" fill="none" xmlns="http://www.w3.org/2000/svg">
<path d="M140 100.434C153.414 100.434 164.353 111.352 164.353 125C164.353 137.998 153.414 149.046 140 149.046C126.586 149.046 115.647 137.998 115.647 125C115.647 111.352 126.586 100.434 140 100.434ZM79.7023 228.982C87.907 233.921 105.879 226.383 126.586 206.886C119.814 199.217 113.172 190.899 106.921 182.19C96.2419 181.15 85.693 179.591 75.6651 177.511C69.0233 205.326 71.4977 224.433 79.7023 228.982ZM88.9488 154.375L85.1721 147.746C83.7395 151.515 82.307 155.285 81.3953 158.924C84.9116 159.704 88.8186 160.354 92.8558 161.004C91.5535 158.794 90.2512 156.585 88.9488 154.375ZM174.121 144.497L184.67 125L174.121 105.503C170.214 98.6145 166.047 92.5056 162.27 86.3966C155.237 86.0067 147.814 86.0067 140 86.0067C132.186 86.0067 124.763 86.0067 117.73 86.3966C113.953 92.5056 109.786 98.6145 105.879 105.503L95.3302 125L105.879 144.497C109.786 151.385 113.953 157.494 117.73 163.603C124.763 163.993 132.186 163.993 140 163.993C147.814 163.993 155.237 163.993 162.27 163.603C166.047 157.494 170.214 151.385 174.121 144.497ZM140 57.1516C137.526 60.0111 134.921 63.0006 132.316 66.51C134.921 66.51 137.395 66.51 140 66.51C142.605 66.51 145.079 66.51 147.684 66.51C145.079 63.0006 142.474 60.0111 140 57.1516ZM140 192.848C142.474 189.989 145.079 186.999 147.684 183.49C145.079 183.49 142.605 183.49 140 183.49C137.395 183.49 134.921 183.49 132.316 183.49C134.921 186.999 137.526 189.989 140 192.848ZM200.167 21.0178C192.093 16.0787 174.121 23.6174 153.414 43.114C160.186 50.7827 166.828 59.1013 173.079 67.8098C183.758 68.8496 194.307 70.4094 204.335 72.489C210.977 44.6738 208.502 25.567 200.167 21.0178ZM191.051 95.625L194.828 102.254C196.26 98.4845 197.693 94.7152 198.605 91.0758C195.088 90.296 191.181 89.6461 187.144 88.9962C188.447 91.2058 189.749 93.4154 191.051 95.625ZM209.935 3.99074C229.079 14.9089 231.163 43.6339 223.088 77.1682C256.167 86.9165 280 103.034 280 125C280 146.966 256.167 163.083 223.088 172.832C231.163 206.366 229.079 235.091 209.935 246.009C190.921 256.927 165.005 244.45 140 220.664C114.995 244.45 89.0791 256.927 69.9349 246.009C50.9209 235.091 48.8372 206.366 56.9116 172.832C23.8326 163.083 0 146.966 0 125C0 103.034 23.8326 86.9165 56.9116 77.1682C48.8372 43.6339 50.9209 14.9089 69.9349 3.99074C89.0791 -6.92738 114.995 5.55048 140 29.3364C165.005 5.55048 190.921 -6.92738 209.935 3.99074ZM206.158 125C210.586 134.748 214.493 144.497 217.749 154.375C245.098 146.186 260.465 134.488 260.465 125C260.465 115.512 245.098 103.814 217.749 95.625C214.493 105.503 210.586 115.252 206.158 125ZM73.8419 125C69.414 115.252 65.507 105.503 62.2512 95.625C34.9023 103.814 19.5349 115.512 19.5349 125C19.5349 134.488 34.9023 146.186 62.2512 154.375C65.507 144.497 69.414 134.748 73.8419 125ZM191.051 154.375C189.749 156.585 188.447 158.794 187.144 161.004C191.181 160.354 195.088 159.704 198.605 158.924C197.693 155.285 196.26 151.515 194.828 147.746L191.051 154.375ZM153.414 206.886C174.121 226.383 192.093 233.921 200.167 228.982C208.502 224.433 210.977 205.326 204.335 177.511C194.307 179.591 183.758 181.15 173.079 182.19C166.828 190.899 160.186 199.217 153.414 206.886ZM88.9488 95.625C90.2512 93.4154 91.5535 91.2058 92.8558 88.9962C88.8186 89.6461 84.9116 90.296 81.3953 91.0758C82.307 94.7152 83.7395 98.4845 85.1721 102.254L88.9488 95.625ZM126.586 43.114C105.879 23.6174 87.907 16.0787 79.7023 21.0178C71.4977 25.567 69.0233 44.6738 75.6651 72.489C85.693 70.4094 96.2419 68.8496 106.921 67.8098C113.172 59.1013 119.814 50.7827 126.586 43.114Z" fill="#71BDD6"/>
</svg>
