<svg width="30" height="18" viewBox="0 0 30 18" fill="none" xmlns="http://www.w3.org/2000/svg">
<g clip-path="url(#clip0_792_115)">
<path d="M8.52647 6.55272C8.52647 6.91785 8.56594 7.21391 8.63502 7.43101C8.71397 7.64812 8.81265 7.88496 8.95081 8.14154C9.00015 8.22049 9.01989 8.29943 9.01989 8.36851C9.01989 8.4672 8.96068 8.56588 8.83239 8.66457L8.21068 9.07904C8.12186 9.13825 8.03305 9.16785 7.9541 9.16785C7.85542 9.16785 7.75673 9.11851 7.65805 9.0297C7.51989 8.88167 7.40147 8.72378 7.30279 8.56588C7.2041 8.39812 7.10542 8.21062 6.99686 7.98364C6.22713 8.89154 5.26002 9.34549 4.09555 9.34549C3.2666 9.34549 2.60542 9.10864 2.12186 8.63496C1.63831 8.16128 1.3916 7.5297 1.3916 6.74022C1.3916 5.90141 1.68765 5.22049 2.28963 4.70733C2.8916 4.19417 3.69094 3.93759 4.70739 3.93759C5.04292 3.93759 5.38831 3.9672 5.75344 4.01654C6.11857 4.06588 6.49358 4.14483 6.88831 4.23364V3.51325C6.88831 2.76325 6.73042 2.24022 6.4245 1.9343C6.10871 1.62838 5.57581 1.48035 4.81594 1.48035C4.47055 1.48035 4.11529 1.51983 3.75015 1.60864C3.38502 1.69746 3.02976 1.80601 2.68436 1.94417C2.52647 2.01325 2.40805 2.05272 2.33897 2.07246C2.26989 2.0922 2.22055 2.10206 2.18108 2.10206C2.04292 2.10206 1.97384 2.00338 1.97384 1.79614V1.31259C1.97384 1.1547 1.99358 1.03627 2.04292 0.967195C2.09226 0.898116 2.18108 0.829037 2.31923 0.759958C2.66463 0.582327 3.0791 0.434301 3.56265 0.315879C4.04621 0.18759 4.55936 0.128379 5.10213 0.128379C6.27647 0.128379 7.13502 0.394827 7.68765 0.927722C8.23042 1.46062 8.50673 2.26983 8.50673 3.35535V6.55272H8.52647ZM4.51989 8.05272C4.84555 8.05272 5.18107 7.99351 5.53634 7.87509C5.8916 7.75667 6.20739 7.53956 6.47384 7.24351C6.63173 7.05601 6.75015 6.84878 6.80936 6.61193C6.86857 6.37509 6.90805 6.08891 6.90805 5.75338V5.33891C6.62186 5.26983 6.31594 5.21062 6.00015 5.17114C5.68436 5.13167 5.37844 5.11193 5.07252 5.11193C4.41134 5.11193 3.92779 5.24022 3.60213 5.50667C3.27647 5.77312 3.11858 6.14812 3.11858 6.64154C3.11858 7.10535 3.237 7.45075 3.48371 7.68759C3.72055 7.9343 4.06594 8.05272 4.51989 8.05272ZM12.4442 9.11851C12.2666 9.11851 12.1482 9.08891 12.0692 9.01983C11.9903 8.96062 11.9212 8.82246 11.862 8.63496L9.54292 1.00667C9.48371 0.8093 9.4541 0.681011 9.4541 0.611932C9.4541 0.454037 9.53305 0.365222 9.69094 0.365222H10.658C10.8455 0.365222 10.9738 0.394827 11.0429 0.463906C11.1219 0.523116 11.1811 0.661274 11.2403 0.848774L12.8982 7.38167L14.4377 0.848774C14.487 0.651406 14.5462 0.523116 14.6252 0.463906C14.7041 0.404695 14.8423 0.365222 15.0199 0.365222H15.8094C15.9969 0.365222 16.1252 0.394827 16.2041 0.463906C16.283 0.523116 16.3521 0.661274 16.3916 0.848774L17.9508 7.46062L19.658 0.848774C19.7173 0.651406 19.7863 0.523116 19.8554 0.463906C19.9344 0.404695 20.0627 0.365222 20.2403 0.365222H21.158C21.3159 0.365222 21.4048 0.444169 21.4048 0.611932C21.4048 0.661274 21.3949 0.710616 21.385 0.769827C21.3752 0.829037 21.3554 0.907985 21.3159 1.01654L18.9377 8.64483C18.8784 8.8422 18.8094 8.97049 18.7304 9.0297C18.6515 9.08891 18.5232 9.12838 18.3554 9.12838H17.5067C17.3192 9.12838 17.1909 9.09878 17.112 9.0297C17.033 8.96062 16.964 8.83233 16.9245 8.63496L15.3949 2.26983L13.8752 8.62509C13.8258 8.82246 13.7666 8.95075 13.6877 9.01983C13.6087 9.08891 13.4705 9.11851 13.2929 9.11851H12.4442ZM25.1252 9.38496C24.612 9.38496 24.0988 9.32575 23.6054 9.20733C23.112 9.08891 22.7271 8.96062 22.4705 8.81259C22.3127 8.72378 22.2041 8.62509 22.1646 8.53628C22.1252 8.44746 22.1054 8.34877 22.1054 8.25996V7.75667C22.1054 7.54943 22.1844 7.45075 22.3324 7.45075C22.3916 7.45075 22.4508 7.46062 22.51 7.48035C22.5692 7.50009 22.658 7.53956 22.7567 7.57904C23.0923 7.72706 23.4574 7.84549 23.8423 7.92443C24.237 8.00338 24.6219 8.04285 25.0166 8.04285C25.6383 8.04285 26.1219 7.9343 26.4574 7.7172C26.7929 7.50009 26.9705 7.1843 26.9705 6.7797C26.9705 6.50338 26.8817 6.27641 26.7041 6.08891C26.5265 5.90141 26.1909 5.73364 25.7074 5.57575L24.2765 5.13167C23.5561 4.9047 23.0232 4.56917 22.6975 4.12509C22.3719 3.69088 22.2041 3.20733 22.2041 2.69417C22.2041 2.2797 22.2929 1.91456 22.4705 1.59877C22.6482 1.28298 22.885 1.00667 23.1811 0.789564C23.4771 0.56259 23.8127 0.394827 24.2074 0.276406C24.6021 0.157985 25.0166 0.108643 25.4508 0.108643C25.6679 0.108643 25.8949 0.118511 26.112 0.148116C26.339 0.177722 26.5462 0.217195 26.7534 0.256669C26.9508 0.306011 27.1383 0.355353 27.3159 0.414564C27.4936 0.473774 27.6317 0.532985 27.7304 0.592195C27.8686 0.671143 27.9673 0.75009 28.0265 0.838906C28.0857 0.917853 28.1153 1.02641 28.1153 1.16456V1.62838C28.1153 1.83562 28.0363 1.94417 27.8883 1.94417C27.8094 1.94417 27.6811 1.9047 27.5133 1.82575C26.9508 1.56917 26.3192 1.44088 25.6186 1.44088C25.0561 1.44088 24.612 1.5297 24.3061 1.7172C24.0002 1.9047 23.8423 2.19088 23.8423 2.59548C23.8423 2.8718 23.9409 3.10864 24.1383 3.29614C24.3357 3.48364 24.7008 3.67114 25.2238 3.83891L26.6251 4.28299C27.3357 4.50996 27.8488 4.82575 28.1548 5.23035C28.4607 5.63496 28.6087 6.09877 28.6087 6.61193C28.6087 7.03628 28.5199 7.42114 28.3521 7.75667C28.1745 8.0922 27.9377 8.38825 27.6317 8.62509C27.3258 8.8718 26.9607 9.04943 26.5363 9.17772C26.0923 9.31588 25.6284 9.38496 25.1252 9.38496Z" fill="#252F3E"/>
<path fill-rule="evenodd" clip-rule="evenodd" d="M26.9906 14.181C23.7438 16.579 19.0267 17.852 14.9708 17.852C9.28661 17.852 4.16491 15.75 0.296488 12.2566C-0.00943283 11.9803 0.266883 11.6053 0.632014 11.8224C4.81622 14.25 9.9774 15.7204 15.3162 15.7204C18.9182 15.7204 22.8754 14.9704 26.5169 13.431C27.0596 13.1843 27.5234 13.7862 26.9906 14.181Z" fill="#FF9900"/>
<path fill-rule="evenodd" clip-rule="evenodd" d="M28.3425 12.6416C27.928 12.1087 25.5991 12.385 24.5432 12.5133C24.2274 12.5528 24.178 12.2764 24.4642 12.0692C26.3195 10.7666 29.3688 11.1416 29.7241 11.5758C30.0793 12.0199 29.6254 15.0692 27.8886 16.5297C27.6221 16.7567 27.3655 16.6383 27.4839 16.3422C27.8787 15.3653 28.757 13.1646 28.3425 12.6416Z" fill="#FF9900"/>
</g>
<defs>
<clipPath id="clip0_792_115">
<rect width="30" height="17.9605" fill="white"/>
</clipPath>
</defs>
</svg>
