<svg width="30" height="30" viewBox="0 0 30 30" fill="none" xmlns="http://www.w3.org/2000/svg">
<g clip-path="url(#clip0_792_121)">
<path d="M19.0909 9.6037L20.0518 9.62011L22.6627 7.00917L22.7893 5.90292C20.7184 4.05792 17.9841 2.93433 14.9963 2.93433C9.58695 2.93433 5.02133 6.61495 3.66992 11.6006C3.95492 11.4018 4.5643 11.5509 4.5643 11.5509L9.78148 10.6931C9.78148 10.6931 10.0496 10.2492 10.1855 10.2712C10.7956 9.60097 11.5389 9.06559 12.3679 8.69936C13.1969 8.33313 14.0933 8.14413 14.9996 8.14448C16.5465 8.14776 17.9715 8.69433 19.0909 9.59854V9.6037Z" fill="#EA4335"/>
<path d="M26.3295 11.611C25.7234 9.37511 24.4742 7.40073 22.7881 5.90308L19.0911 9.60011C20.5723 10.7954 21.5225 12.6245 21.5225 14.672V15.3245C23.3211 15.3245 24.7821 16.7889 24.7821 18.5842C24.7821 20.3828 23.3178 21.8439 21.5225 21.8439H15.0031L14.3506 22.5001V26.4123L15.0031 27.0615H21.5225C23.7698 27.0584 25.9241 26.1643 27.5133 24.5753C29.1024 22.9863 29.9966 20.8319 29.9998 18.5846C29.9965 15.6995 28.5467 13.1471 26.3295 11.6115V11.611Z" fill="#4285F4"/>
<path d="M8.4775 27.0657H14.9931V21.8438H8.4775C8.01458 21.8439 7.55706 21.7445 7.13594 21.5522L6.19516 21.8405L3.58422 24.4515L3.35547 25.3327C4.82682 26.4552 6.6264 27.0628 8.47703 27.0619L8.4775 27.0657Z" fill="#34A853"/>
<path d="M8.47734 10.1108C6.23004 10.1139 4.07567 11.008 2.48655 12.5971C0.897421 14.1861 0.00322425 16.3404 0 18.5877C0 21.3407 1.31859 23.7885 3.35906 25.3391L7.13906 21.5591C6.56691 21.3011 6.08132 20.8836 5.74052 20.3565C5.39972 19.8295 5.21818 19.2153 5.21766 18.5877C5.21766 16.7891 6.68203 15.328 8.47734 15.328C9.79922 15.328 10.9355 16.1249 11.4492 17.2499L15.2292 13.4699C13.6791 11.4294 11.2308 10.1108 8.47781 10.1108H8.47734Z" fill="#FBBC05"/>
</g>
<defs>
<clipPath id="clip0_792_121">
<rect width="30" height="30" fill="white"/>
</clipPath>
</defs>
</svg>
