<svg width="30" height="24" viewBox="0 0 30 24" fill="none" xmlns="http://www.w3.org/2000/svg">
<path d="M13.8787 21.9958C17.733 21.3149 20.9165 20.7515 20.953 20.7437L21.0195 20.7296L17.3807 16.4014C15.3793 14.0208 13.7418 12.0638 13.7418 12.0526C13.7418 12.0312 17.4993 1.6841 17.5204 1.64729C17.5274 1.63498 20.0845 6.04963 23.7188 12.3487C27.1213 18.246 29.9265 23.1083 29.9526 23.1539L30 23.2367L18.4355 23.2352L6.87092 23.2337L13.8787 21.9958ZM0 20.6759C0 20.6698 1.71461 17.6934 3.81023 14.0616L7.62047 7.45841L12.0609 3.73203C14.5031 1.68252 16.5078 0.00314696 16.5158 8.41867e-05C16.5239 -0.00297798 16.4918 0.0778811 16.4445 0.179772C16.3972 0.281663 14.2274 4.93552 11.6228 10.5217L6.8872 20.6783L3.4436 20.6826C1.54962 20.685 0 20.682 0 20.6759Z" fill="#0089D6"/>
</svg>
