<svg width="30" height="30" viewBox="0 0 30 30" fill="none" xmlns="http://www.w3.org/2000/svg">
<g clip-path="url(#clip0_792_130)">
<path d="M24.1406 30H5.67188C4.91447 29.9969 4.18897 29.6947 3.6534 29.1591C3.11783 28.6235 2.81559 27.898 2.8125 27.1406V2.85938C2.81559 2.10197 3.11783 1.37647 3.6534 0.8409C4.18897 0.305331 4.91447 0.00308518 5.67188 0L24.1406 0C24.898 0.00308518 25.6235 0.305331 26.1591 0.8409C26.6947 1.37647 26.9969 2.10197 27 2.85938V27.1406C26.9969 27.898 26.6947 28.6235 26.1591 29.1591C25.6235 29.6947 24.898 29.9969 24.1406 30V30Z" fill="#6762A6"/>
<path d="M17.9766 25.8691V13.957C17.9766 13.957 18.75 11.1035 8.42578 15.1289C8.41406 15.2344 8.41406 4.10156 8.41406 4.10156L11.7773 4.08398V11.1152C11.7773 11.1152 21.2109 7.39453 21.2109 13.9277V25.7988H17.959L17.9766 25.8691ZM19.8984 8.37305H16.3828C17.6719 6.79102 18.8438 4.0957 18.8438 4.0957H22.5352C22.5352 4.0957 21.9023 5.85352 19.957 8.37305H19.8984ZM8.47266 25.8457V19.0664L11.8711 22.4648L8.47266 25.8633V25.8457Z" fill="white"/>
</g>
<defs>
<clipPath id="clip0_792_130">
<rect width="30" height="30" fill="white"/>
</clipPath>
</defs>
</svg>
