<svg width="30" height="30" viewBox="0 0 30 30" fill="none" xmlns="http://www.w3.org/2000/svg">
<g clip-path="url(#clip0_792_133)">
<path d="M21.725 10.4108L21.7141 10.4062C21.7078 10.4038 21.7016 10.4016 21.6962 10.396C21.678 10.3765 21.6699 10.3496 21.6743 10.3232L22.2782 6.62556L25.1104 9.46257L22.1649 10.7176C22.1569 10.7209 22.148 10.7225 22.1391 10.7221H22.1274C22.1235 10.7197 22.1197 10.7166 22.1118 10.7088C22.0022 10.5866 21.8711 10.4856 21.7251 10.4108L21.725 10.4108ZM25.833 10.1854L28.8613 13.2181C29.4902 13.8487 29.8051 14.1632 29.9199 14.5278C29.9371 14.5818 29.9512 14.6358 29.9621 14.6913L22.7251 11.622C22.7212 11.6203 22.7173 11.6187 22.7133 11.6174C22.6844 11.6056 22.6508 11.5923 22.6508 11.5626C22.6508 11.5329 22.6852 11.5188 22.7141 11.507L22.7235 11.5032L25.833 10.1854ZM29.8387 15.6647C29.6824 15.9588 29.3777 16.264 28.8621 16.7812L25.4478 20.1995L21.032 19.2786L21.0086 19.274C20.9695 19.2677 20.9281 19.2607 20.9281 19.2255C20.8942 18.8568 20.7089 18.5187 20.4164 18.2921C20.3984 18.2741 20.4031 18.2459 20.4086 18.2201C20.4086 18.2162 20.4086 18.2124 20.4102 18.2091L21.2407 13.1031L21.2437 13.0859C21.2483 13.0468 21.2554 13.0014 21.2906 13.0014C21.6501 12.9566 21.9766 12.7692 22.1969 12.4811C22.2039 12.4733 22.2086 12.4647 22.218 12.46C22.243 12.4482 22.2727 12.46 22.2984 12.471L29.8379 15.6647L29.8387 15.6647ZM24.6626 20.9858L19.0483 26.6082L20.0093 20.6932L20.0109 20.6854C20.0117 20.6777 20.0133 20.6698 20.0154 20.6628C20.0232 20.644 20.0436 20.6361 20.0631 20.6283L20.0725 20.6244C20.2829 20.5345 20.469 20.3959 20.6155 20.2199C20.6342 20.198 20.6569 20.1769 20.6858 20.173C20.6933 20.1717 20.7009 20.1717 20.7084 20.173L24.6618 20.9867L24.6626 20.9858ZM17.86 27.7983L17.2271 28.432L10.2307 18.3061C10.2282 18.3024 10.2256 18.2988 10.223 18.2951C10.2121 18.2802 10.2003 18.2653 10.2027 18.2481C10.2027 18.2356 10.2113 18.2247 10.2199 18.2153L10.2276 18.2051C10.2487 18.1738 10.2667 18.1425 10.2862 18.1088L10.3018 18.0814L10.3043 18.079C10.3153 18.0602 10.3254 18.0422 10.3441 18.0321C10.3605 18.0243 10.3832 18.0275 10.4011 18.0313L18.1523 19.6321C18.174 19.6354 18.1944 19.6443 18.2117 19.6579C18.2218 19.6681 18.2242 19.679 18.2265 19.6915C18.3361 20.1068 18.6332 20.4469 19.0297 20.6109C19.0515 20.6219 19.0422 20.6461 19.0321 20.6719C19.0271 20.6832 19.0231 20.695 19.0204 20.7071C18.9227 21.3017 18.0852 26.4171 17.8602 27.7981L17.86 27.7983ZM16.5381 29.1213C16.0716 29.5837 15.7966 29.8286 15.4857 29.9272C15.1791 30.0243 14.85 30.0243 14.5434 29.9272C14.1794 29.8114 13.8645 29.4969 13.2356 28.8662L6.20946 21.83L8.0447 18.9797C8.05335 18.9656 8.06189 18.9531 8.07595 18.9429C8.09547 18.9289 8.1236 18.9352 8.14704 18.9429C8.56828 19.0702 9.02056 19.0473 9.42679 18.878C9.44789 18.8702 9.46898 18.8647 9.48538 18.8795C9.49367 18.8869 9.50093 18.8954 9.50725 18.9046L16.538 29.1221L16.5381 29.1213ZM5.53209 21.1517L3.92029 19.5376L7.10325 18.1778C7.11136 18.1741 7.12015 18.1723 7.12904 18.1723C7.1556 18.1723 7.17123 18.1989 7.18529 18.2231C7.21728 18.2724 7.25115 18.3204 7.28686 18.3671L7.29705 18.3796C7.30644 18.3929 7.30009 18.4062 7.29074 18.4187L5.53284 21.1517L5.53209 21.1517ZM3.20698 18.8232L1.16782 16.7812C0.820934 16.4338 0.56936 16.1818 0.394352 15.9651L6.59463 17.2529C6.60239 17.2544 6.61023 17.2558 6.61808 17.2568C6.65636 17.2631 6.69854 17.2701 6.69854 17.3061C6.69854 17.3453 6.65244 17.3632 6.61338 17.3781L6.59541 17.3859L3.20698 18.8232ZM0.0380859 14.9151C0.0451814 14.7836 0.0687806 14.6534 0.108397 14.5278C0.224027 14.1632 0.538104 13.8487 1.16782 13.2181L3.77731 10.6048C4.9788 12.3511 6.18355 14.0951 7.39154 15.8368C7.41264 15.865 7.43607 15.8963 7.41186 15.9197C7.29779 16.0457 7.18372 16.1834 7.10325 16.3328C7.0945 16.352 7.08108 16.3687 7.06418 16.3813C7.05399 16.3877 7.04308 16.3852 7.03137 16.3829H7.02982L0.0380859 14.9143V14.9151ZM4.47579 9.90535L7.98298 6.39155C8.31346 6.5363 9.5143 7.04408 10.587 7.49787C11.3995 7.84214 12.1402 8.1551 12.373 8.25681C12.3965 8.26621 12.4175 8.27558 12.4277 8.29906C12.434 8.31314 12.4308 8.33114 12.4277 8.34601C12.3149 8.86124 12.4684 9.39875 12.8363 9.77626C12.8598 9.79973 12.8363 9.83336 12.816 9.86233L12.8051 9.87876L9.24246 15.4049C9.23308 15.4206 9.22449 15.4339 9.20886 15.444C9.19011 15.4558 9.16354 15.4504 9.14167 15.4448C9.0031 15.4085 8.86066 15.389 8.71743 15.3869C8.5893 15.3869 8.45023 15.4104 8.3096 15.4362H8.3088C8.29318 15.4387 8.27911 15.4417 8.26661 15.4323C8.2528 15.421 8.24093 15.4076 8.23146 15.3924L4.47505 9.9054L4.47579 9.90535ZM8.69317 5.6819L13.2356 1.13298C13.8645 0.503141 14.1794 0.187831 14.5434 0.072816C14.85 -0.024272 15.1791 -0.024272 15.4857 0.072816C15.8497 0.187831 16.1646 0.503141 16.7935 1.13298L17.778 2.11882L14.5473 7.12936C14.5394 7.14395 14.5284 7.15672 14.5153 7.16691C14.4958 7.18021 14.4684 7.17466 14.445 7.16691C13.9279 7.00976 13.3667 7.11807 12.9449 7.4564C12.9238 7.47831 12.8926 7.4658 12.866 7.45397C12.4441 7.2701 9.16272 5.88132 8.69317 5.68181L8.69317 5.6819ZM18.4639 2.80577L21.4469 5.79301L20.7281 10.2512V10.2629C20.7275 10.2731 20.7253 10.2831 20.7218 10.2926C20.714 10.3083 20.6983 10.3114 20.6827 10.3161C20.529 10.3627 20.3843 10.4349 20.2546 10.5297C20.249 10.5338 20.2438 10.5382 20.2389 10.543C20.2303 10.5524 20.2217 10.561 20.2077 10.5626C20.1962 10.5629 20.1848 10.5611 20.1741 10.5571L15.6286 8.62296L15.6199 8.61906C15.591 8.60734 15.5566 8.59324 15.5566 8.56352C15.5299 8.30985 15.4472 8.06531 15.3144 7.84762C15.2925 7.81162 15.2683 7.77406 15.2871 7.7373L18.4639 2.80577ZM15.3919 9.53918L19.653 11.3465C19.6765 11.3575 19.7023 11.3677 19.7124 11.3919C19.7165 11.4065 19.7165 11.4219 19.7124 11.4365C19.6999 11.4991 19.689 11.5703 19.689 11.6423V11.762C19.689 11.7917 19.6585 11.8043 19.6304 11.816L19.6217 11.819C18.9467 12.1078 10.1447 15.8665 10.1315 15.8665C10.1182 15.8665 10.1041 15.8665 10.0908 15.8532C10.0674 15.8297 10.0908 15.7968 10.1119 15.7671C10.1157 15.762 10.1192 15.7567 10.1228 15.7514L13.6245 10.3215L13.6309 10.3121C13.6512 10.2793 13.6746 10.2425 13.7121 10.2425L13.7473 10.248C13.827 10.259 13.8973 10.2691 13.9684 10.2691C14.4996 10.2691 14.9918 10.0101 15.2887 9.5673C15.2959 9.55547 15.3048 9.5449 15.3153 9.53599C15.3364 9.52035 15.3676 9.52824 15.3919 9.53904L15.3919 9.53918ZM10.512 16.7256L20.1062 12.6281C20.1062 12.6281 20.1202 12.6281 20.1335 12.6414C20.1859 12.6939 20.2304 12.7291 20.2734 12.7619L20.2945 12.7752C20.314 12.7862 20.3335 12.7987 20.3351 12.819C20.3351 12.8268 20.3351 12.8316 20.3335 12.8386L19.5115 17.8945L19.5085 17.9149C19.503 17.954 19.4976 17.9986 19.4608 17.9986C19.016 18.0287 18.6146 18.2766 18.3881 18.6613L18.3842 18.6676C18.3734 18.6856 18.3631 18.7028 18.3452 18.7122C18.3288 18.72 18.3077 18.7168 18.2905 18.713L10.6394 17.1325C10.6316 17.131 10.5206 16.7264 10.512 16.7257L10.512 16.7256Z" fill="url(#paint0_radial_792_133)"/>
</g>
<defs>
<radialGradient id="paint0_radial_792_133" cx="0" cy="0" r="1" gradientUnits="userSpaceOnUse" gradientTransform="translate(15.0001 -15) scale(30 30.0761)">
<stop stop-color="#20C6B7"/>
<stop offset="1" stop-color="#4D9ABF"/>
</radialGradient>
<clipPath id="clip0_792_133">
<rect width="30" height="30" fill="white"/>
</clipPath>
</defs>
</svg>
