<svg width="30" height="30" viewBox="0 0 30 30" fill="none" xmlns="http://www.w3.org/2000/svg">
<path fill-rule="evenodd" clip-rule="evenodd" d="M27.6331 22.644C26.0012 22.5985 24.7351 22.7658 23.674 23.2122C23.3685 23.3349 22.8782 23.3349 22.838 23.7194C23.0012 23.8808 23.0209 24.1449 23.1641 24.3685C23.4088 24.7744 23.8378 25.3212 24.2252 25.6049L25.531 26.538C26.3268 27.0244 27.2246 27.3085 27.9999 27.7953C28.449 28.0794 28.8977 28.4444 29.3469 28.7489C29.5756 28.9112 29.7141 29.1753 30 29.2762V29.2148C29.8573 29.033 29.8161 28.7694 29.6739 28.5657L29.061 27.978C28.4696 27.1871 27.7346 26.4971 26.9388 25.9299C26.2857 25.4835 24.8577 24.8753 24.5924 24.1253L24.5522 24.0799C25.0004 24.0344 25.531 23.8767 25.96 23.7549C26.6543 23.5731 27.2864 23.6131 27.9999 23.4308L28.98 23.1467V22.9649C28.6128 22.5999 28.3475 22.1131 27.9601 21.7685C26.9196 20.8763 25.7761 20.004 24.5924 19.274C23.9599 18.8686 23.1435 18.6045 22.4702 18.2604C22.2246 18.1386 21.8171 18.0777 21.6744 17.875C21.3062 17.4295 21.1027 16.8409 20.8374 16.3132L19.1643 12.7846C18.797 11.9937 18.572 11.2028 18.1238 10.4728C16.0217 7.02507 13.7357 4.93646 10.2258 2.88785C9.47115 2.46194 8.57332 2.27876 7.61878 2.05604L6.0884 1.97422C5.76137 1.8324 5.43527 1.44695 5.14941 1.26423C3.9863 0.534234 0.986374 -1.04757 0.128795 1.03696C-0.422343 2.35512 0.945208 3.65284 1.40944 4.32237C1.75705 4.78873 2.20528 5.316 2.45089 5.84327C2.5881 6.18781 2.63384 6.55326 2.777 6.91826C3.10311 7.81052 3.40955 8.8046 3.83811 9.63641C4.0668 10.0623 4.30692 10.5091 4.59278 10.8941C4.75607 11.1214 5.04192 11.2187 5.10275 11.5837C4.81689 11.9896 4.79723 12.5973 4.63394 13.105C3.89894 15.3968 4.1848 18.2359 5.22533 19.9231C5.55235 20.4299 6.32303 21.5458 7.36859 21.1195C8.28701 20.7545 8.0821 19.5986 8.34738 18.5845C8.40912 18.3413 8.36796 18.179 8.49008 18.0163V18.0618L9.32708 19.7449C9.95963 20.7386 11.0619 21.7731 11.9799 22.4631C12.4692 22.8281 12.8571 23.4572 13.4691 23.6799V23.6185H13.4288C13.3062 23.4367 13.1224 23.3549 12.9591 23.2131C12.5918 22.8481 12.1838 22.4017 11.898 21.9963C11.0413 20.8608 10.2867 19.6031 9.61294 18.3054C9.28591 17.6768 9.00005 16.9872 8.73569 16.3586C8.6122 16.115 8.6122 15.7495 8.40867 15.6286C8.10223 16.0741 7.654 16.4604 7.42851 17.0077C7.04066 17.8795 7.00041 18.9545 6.8577 20.0699C6.77538 20.0904 6.81197 20.0699 6.77538 20.1154C6.12316 19.9536 5.89813 19.2836 5.65344 18.7163C5.04147 17.2763 4.93901 14.9645 5.46957 13.3014C5.61227 12.8755 6.22515 11.5368 5.98046 11.1314C5.85697 10.7459 5.4499 10.5232 5.22487 10.2187C4.95959 9.83322 4.67465 9.34686 4.49078 8.92096C4.00139 7.78461 3.7567 6.5278 3.22568 5.39191C2.98007 4.86464 2.55197 4.31692 2.20482 3.83056C1.81697 3.28284 1.38932 2.89739 1.08288 2.24876C0.980885 2.02149 0.838183 1.66059 1.00147 1.41695C1.04172 1.25468 1.12404 1.18968 1.28641 1.15332C1.55169 0.926048 2.30727 1.21423 2.57255 1.33514C3.32722 1.63968 3.95977 1.92331 4.59232 2.34876C4.87818 2.55149 5.18463 2.93694 5.5519 3.03875H5.98091C6.63404 3.18057 7.36814 3.08421 7.97965 3.26602C9.06134 3.61147 10.0406 4.11783 10.9187 4.66601C13.5916 6.34917 15.7962 8.74233 17.2854 11.6023C17.5301 12.0687 17.6321 12.4946 17.8571 12.9814C18.2861 13.9754 18.8167 14.9891 19.2444 15.9632C19.6734 16.9163 20.0813 17.8904 20.6933 18.6813C20.9998 19.1072 22.2237 19.3299 22.7744 19.5531C23.1828 19.7349 23.8149 19.8986 24.1831 20.1213C24.8765 20.5472 25.5703 21.034 26.223 21.5004C26.5491 21.7431 27.57 22.2504 27.6308 22.6549L27.6331 22.644ZM6.82249 5.02055C6.54055 5.01807 6.25948 5.05215 5.9864 5.12191V5.16737H6.02665C6.18994 5.49191 6.4758 5.71509 6.67979 5.99917L7.14951 6.9728L7.18976 6.92734C7.47562 6.72462 7.61878 6.40008 7.61878 5.91372C7.4962 5.7719 7.47608 5.62963 7.37408 5.48782C7.2515 5.28509 6.98623 5.18327 6.82249 5.02146V5.02055Z" fill="#00678C"/>
</svg>
