<svg width="30" height="33" viewBox="0 0 30 33" fill="none" xmlns="http://www.w3.org/2000/svg">
<path d="M18.9411 15.3289L12.3653 17.4761L6.64438 20.001L5.04388 20.4236C4.63627 20.8113 4.20887 21.204 3.74661 21.6016C3.23964 22.039 2.76746 22.4367 2.40456 22.7249C2.00199 23.043 1.40553 23.6394 1.10237 24.0171C0.650033 24.5837 0.292179 25.1851 0.138086 25.6474C-0.135308 26.4825 -0.00104165 27.3274 0.525805 28.1078C1.20177 29.1019 2.54877 30.1158 4.11937 30.8067C4.91965 31.1597 6.26661 31.6119 7.28054 31.8654C8.96545 32.2929 12.2261 32.7551 14.0203 32.8248C14.3831 32.8397 14.8703 32.8397 14.8901 32.8248C14.9299 32.7998 15.2083 32.268 15.5314 31.607C16.6348 29.3554 17.4301 27.2429 17.8625 25.4387C18.1209 24.3453 18.3247 22.8889 18.4588 21.1643C18.4937 20.6821 18.5085 19.0667 18.4787 18.52C18.4339 17.6253 18.3544 16.8997 18.2303 16.1889C18.2104 16.0845 18.2053 15.99 18.2153 15.9851C18.2351 15.9702 18.2948 15.9503 19.105 15.7166L18.941 15.329V15.3289H18.9411V15.3289ZM17.4401 16.2087C17.4997 16.2087 17.6587 17.7346 17.6984 18.6989C17.7084 18.9026 17.7034 19.0368 17.6935 19.0368C17.6538 19.0368 16.8535 18.5647 16.282 18.2068C15.7849 17.8937 14.8406 17.2674 14.6915 17.1481C14.6417 17.1133 14.6466 17.1084 15.0543 16.9692C15.7451 16.7355 17.3854 16.2087 17.4401 16.2087V16.2087ZM14.09 17.3121C14.1348 17.3121 14.249 17.3767 14.5224 17.5457C15.5463 18.1869 16.938 18.9623 17.5345 19.2208C17.7183 19.3003 17.7382 19.2704 17.3158 19.5588C16.4111 20.1751 15.2828 20.7814 13.901 21.3928C13.6575 21.5022 13.4538 21.5866 13.4488 21.5866C13.4389 21.5866 13.4686 21.4624 13.5084 21.3133C13.8414 20.0756 14.0303 18.8231 14.0403 17.8191C14.0452 17.322 14.0452 17.322 14.09 17.3072C14.08 17.3121 14.085 17.3121 14.09 17.3121V17.3121ZM13.3991 17.5755C13.4289 17.6053 13.409 18.7187 13.3692 19.0219C13.2798 19.7476 13.1406 20.4235 12.9121 21.1841C12.8574 21.3679 12.8076 21.522 12.7978 21.5319C12.7778 21.5568 12.0968 20.8907 11.8732 20.6323C11.4854 20.1849 11.1823 19.7376 10.9587 19.3002C10.8443 19.0766 10.6654 18.6392 10.6803 18.6243C10.7598 18.5696 13.3792 17.5557 13.3991 17.5755ZM10.1484 18.8529C10.1534 18.8529 10.1583 18.8529 10.1634 18.8579C10.1733 18.8678 10.2081 18.9474 10.238 19.0368C10.397 19.4692 10.7548 20.1054 11.063 20.513C11.401 20.9604 11.8434 21.4375 12.2111 21.7506C12.3305 21.85 12.4398 21.9444 12.4546 21.9594C12.4845 21.9892 12.4944 21.9842 11.6842 22.2924C10.7449 22.6503 9.72098 23.0081 8.54794 23.3859C8.26772 23.4762 7.98777 23.5673 7.70807 23.6592C7.66326 23.6742 7.6782 23.6493 7.80743 23.4456C8.38894 22.5359 9.27364 20.7516 9.77071 19.4891C9.85522 19.2704 9.9397 19.0517 9.95465 19.002C9.97454 18.9324 9.99934 18.9076 10.0639 18.8727C10.0987 18.8629 10.1336 18.8529 10.1484 18.8529V18.8529ZM9.15445 19.2654C9.16933 19.2754 8.91583 19.8072 8.66731 20.2943C8.18515 21.2337 7.65831 22.1583 6.95252 23.2815C6.83325 23.4754 6.71896 23.6543 6.70402 23.6742C6.6792 23.709 6.6692 23.699 6.58969 23.545C6.4207 23.212 6.28149 22.7845 6.20695 22.3918C6.13237 22.0041 6.14731 21.3282 6.23184 20.9107C6.29638 20.6025 6.29148 20.6075 6.44058 20.5329C7.07677 20.2099 9.13456 19.2456 9.15445 19.2654V19.2654ZM17.7283 19.6134V19.8222C17.7283 20.9306 17.609 22.4515 17.435 23.5599C17.4052 23.7537 17.3803 23.9127 17.3754 23.9178C17.3754 23.9178 17.2313 23.8781 17.0623 23.8283C16.3167 23.5947 15.5065 23.2517 14.7759 22.8492C14.2937 22.5857 13.5929 22.1532 13.6128 22.1333C13.6177 22.1284 13.8265 22.0191 14.07 21.8898C15.0443 21.3829 15.9787 20.8361 16.7889 20.2944C17.0921 20.0906 17.5493 19.7626 17.6488 19.6731L17.7283 19.6134ZM5.40173 21.0846C5.42161 21.0846 5.41663 21.1243 5.38681 21.3033C5.36692 21.4325 5.3421 21.6711 5.33222 21.8351C5.29236 22.5608 5.41173 23.0976 5.76958 23.8332C5.86899 24.037 5.94857 24.206 5.94352 24.2109C5.90871 24.2408 2.61838 25.2051 1.58447 25.4884C1.27633 25.5728 1.00798 25.6474 0.987994 25.6523C0.953269 25.6623 0.948272 25.6573 0.963171 25.5728C1.07747 24.8422 1.63419 23.8879 2.40953 23.0826C2.92648 22.5458 3.33904 22.2327 4.04483 21.8301C4.5518 21.5418 5.33215 21.1095 5.39179 21.0895C5.39183 21.0846 5.39678 21.0846 5.40173 21.0846V21.0846ZM13.1556 22.4713C13.1605 22.4664 13.2798 22.531 13.4239 22.6155C14.4876 23.2318 15.9688 23.8034 17.2312 24.0967L17.3456 24.1215L17.1865 24.2109C16.5254 24.5788 14.3534 25.4833 12.1317 26.3134C11.8085 26.4327 11.4905 26.552 11.4307 26.5768C11.3711 26.6017 11.3164 26.6166 11.3164 26.6117C11.3164 26.6066 11.4059 26.4327 11.5202 26.219C12.1415 25.0559 12.7678 23.6394 13.0859 22.6552C13.1257 22.5608 13.1505 22.4763 13.1556 22.4713V22.4713ZM12.3653 22.7298C12.3703 22.7349 12.3305 22.8392 12.2808 22.9584C11.8484 24.0072 11.2817 25.1504 10.556 26.4328C10.3722 26.7608 10.218 27.0243 10.213 27.0243C10.2081 27.0243 10.059 26.9348 9.88004 26.8254C8.82626 26.1793 7.89187 25.384 7.28056 24.6136L7.19105 24.5042L7.64332 24.38C9.26369 23.9377 10.6404 23.4605 12.0073 22.874C12.2012 22.7945 12.3603 22.7298 12.3653 22.7298V22.7298ZM17.276 24.4446C17.276 24.4446 17.281 24.4496 17.276 24.4446C17.281 24.5589 17.0275 25.5828 16.8187 26.3233C16.6447 26.9446 16.4956 27.4318 16.2223 28.2916C16.103 28.6694 15.9987 28.9825 15.9936 28.9825C15.9887 28.9825 15.9589 28.9775 15.929 28.9677C14.4529 28.6992 13.1307 28.3264 11.8881 27.8294C11.5401 27.6902 11.0431 27.4665 11.0133 27.4417C11.0034 27.4317 11.3017 27.2926 11.6794 27.1285C13.9409 26.1394 16.2869 25.0161 17.0921 24.534C17.1865 24.4744 17.2611 24.4446 17.276 24.4446V24.4446ZM5.93857 24.8323C5.94852 24.8422 5.31727 25.7518 4.4325 26.9894C4.12436 27.4219 3.76651 27.9288 3.63233 28.1177C3.49811 28.3066 3.29435 28.6048 3.18002 28.7837L2.97117 29.1068L2.74749 28.918C2.48405 28.6992 2.02683 28.232 1.82305 27.9736C1.39556 27.4418 1.10734 26.8801 0.993013 26.3682C0.938325 26.1296 0.938324 26.0103 0.98797 25.9954C1.06251 25.9755 2.38962 25.6624 3.63229 25.3741C4.32317 25.2151 5.12334 25.0262 5.41164 24.9566C5.69995 24.8869 5.93362 24.8323 5.93857 24.8323V24.8323ZM6.57475 25.0759L6.73375 25.2548C7.44957 26.055 8.1802 26.6466 9.06493 27.1634C9.22402 27.2529 9.34327 27.3324 9.33328 27.3375C9.29858 27.3623 6.26159 28.4407 4.85499 28.9279C4.06475 29.2062 3.41358 29.4298 3.40868 29.4298C3.40372 29.4298 3.35896 29.4001 3.30918 29.3653L3.21977 29.3006L3.36389 29.0919C3.83107 28.4159 4.41767 27.6754 5.69505 26.1345L6.57475 25.0759ZM10.5412 27.9139C10.5461 27.909 10.7648 27.9884 11.0331 28.088C11.6794 28.3315 12.1912 28.4855 12.8772 28.6595C13.7222 28.8732 14.9449 29.082 15.6656 29.1416C15.775 29.1515 15.8346 29.1615 15.8147 29.1764C15.7799 29.1963 15.0493 29.4399 14.5125 29.6089C13.6575 29.8772 11.0481 30.6476 8.9208 31.259C8.52813 31.3733 8.19013 31.4678 8.17026 31.4727C8.12061 31.4827 7.95652 31.4379 7.95652 31.418C7.95652 31.4081 8.0758 31.2541 8.21997 31.0851C8.93566 30.2301 9.64649 29.2758 10.238 28.3712C10.4019 28.1226 10.5412 27.9189 10.5412 27.9139ZM9.66631 27.9388C9.67126 27.9438 9.3184 28.5104 8.70214 29.4845C8.43865 29.8971 8.14539 30.3643 8.04098 30.5283C7.94158 30.6874 7.79248 30.9359 7.70802 31.0751L7.56385 31.3286L7.48932 31.3087C7.31033 31.259 6.05285 30.8166 5.71982 30.6824C5.30726 30.5184 4.87982 30.3196 4.56168 30.1506C4.16411 29.9368 3.6671 29.6187 3.70682 29.6088C3.71675 29.6039 4.39771 29.4199 5.21778 29.1963C7.39484 28.6047 8.6026 28.2618 9.39296 28.0133C9.53713 27.9686 9.66136 27.9338 9.66631 27.9388ZM15.8545 29.3901H15.8594C15.8793 29.4398 15.0742 31.6765 14.7808 32.3823C14.7163 32.5413 14.6915 32.5811 14.6566 32.5761C14.5721 32.5712 13.4041 32.4071 12.6933 32.3027C11.4557 32.1139 9.37804 31.751 8.85619 31.6318L8.73691 31.6069L9.4774 31.4378C11.068 31.08 11.8334 30.8862 12.6088 30.6476C13.588 30.3494 14.5572 29.9766 15.5363 29.5193C15.6904 29.4497 15.8197 29.3951 15.8545 29.3901Z" fill="url(#paint0_linear_792_68)"/>
<path d="M12.1616 0.000254576C12.0523 -0.0145749 10.2877 0.621624 9.14955 1.08381C7.61366 1.71016 6.42084 2.30663 5.68519 2.82344C5.41186 3.01737 5.06884 3.36028 5.01424 3.49446C4.99437 3.54417 4.98438 3.60381 4.98438 3.66345L5.65044 4.2947L7.23595 4.80167L11.0085 5.47766L15.3227 6.21826L15.3675 5.84548C15.3526 5.84548 15.3426 5.84053 15.3279 5.84053L14.7611 5.75103L14.6468 5.54727C14.0603 4.5134 13.4142 3.23103 13.0364 2.36618C12.7432 1.69517 12.4649 0.919863 12.3107 0.363152C12.2262 0.0251688 12.2163 0.00529699 12.1617 0.000346207V0.000231494H12.1616V0.000254576ZM12.082 0.253822H12.0871C12.092 0.258727 12.1119 0.397991 12.1318 0.561917C12.2162 1.25787 12.3704 1.92877 12.6139 2.65447C12.7978 3.20124 12.7978 3.17144 12.5841 3.10678C12.0771 2.96766 9.80569 2.57498 8.16049 2.34635C7.89704 2.31154 7.67336 2.27677 7.67336 2.27182C7.65349 2.25195 8.86125 1.62065 9.3931 1.3722C10.074 1.05899 11.9429 0.278645 12.082 0.253822V0.253822ZM7.29057 2.48053L7.4845 2.54507C8.53815 2.903 11.1873 3.40999 12.6487 3.52927C12.8126 3.54419 12.9519 3.55914 12.9568 3.55914C12.9617 3.56409 12.8226 3.63865 12.6437 3.72311C11.9379 4.07601 11.1625 4.50845 10.6257 4.84148C10.4667 4.94084 10.3225 5.02042 10.3027 5.02042C10.2828 5.02042 10.1784 5.00053 10.0691 4.9856L9.87027 4.95574L9.37329 4.46861C8.49849 3.61873 7.81256 2.96266 7.54911 2.71409L7.29057 2.48053V2.48053ZM7.09183 2.63458L7.79264 3.5094C8.17532 3.99153 8.56302 4.46369 8.64759 4.56802C8.73201 4.67247 8.80164 4.757 8.79669 4.76195C8.77679 4.77685 7.78278 4.58296 7.25585 4.46373C6.71408 4.33944 6.49042 4.2798 6.15741 4.17546L5.88402 4.08596V4.01633C5.88897 3.6833 6.31151 3.18629 7.02722 2.67936L7.09183 2.63458ZM13.0463 3.82749C13.0662 3.82749 13.091 3.87221 13.1507 4.0064C13.3196 4.37916 13.8466 5.38323 13.9757 5.57704C14.0156 5.64172 14.0851 5.64667 13.3843 5.53235C11.6994 5.25891 11.1576 5.16954 11.1576 5.15959C11.1576 5.15464 11.2073 5.11983 11.2719 5.08501C11.7938 4.79679 12.3206 4.42894 12.7879 4.03627C12.9022 3.94181 13.0066 3.85236 13.0264 3.83741C13.0314 3.82749 13.0414 3.82254 13.0463 3.82749Z" fill="url(#paint1_linear_792_68)"/>
<path d="M5.04909 3.42505C5.04909 3.42505 4.93981 3.59908 5.04416 3.85755C5.10884 4.01655 5.29768 4.21037 5.51137 4.40922C5.51137 4.40922 7.72318 6.56635 7.9916 6.87456C9.21426 8.2861 9.74613 9.67782 9.79584 11.5964C9.82566 12.8291 9.59199 13.9126 9.0105 15.1701C7.97665 17.4267 5.79462 19.9169 2.42969 22.6804L2.92183 22.5164C3.23992 22.2778 3.67236 22.0244 4.68628 21.4676C7.0273 20.1852 9.66162 19.0072 12.8924 17.7945C17.5446 16.0449 25.1941 13.997 29.548 13.3311L30.0004 13.2614L29.9308 13.1521C29.5332 12.5357 29.2598 12.1531 28.9317 11.7455C27.9774 10.5625 26.8194 9.60329 25.4028 8.808C23.4544 7.71954 20.9343 6.86961 17.7434 6.23836C17.142 6.11901 15.8199 5.8904 14.7463 5.72639C12.4698 5.37357 10.9986 5.12998 9.3783 4.85163C8.79681 4.75218 7.92692 4.60311 7.35036 4.47888C7.05214 4.4142 6.4806 4.28002 6.03326 4.12595C5.67541 3.98671 5.15844 3.84754 5.04909 3.42505V3.42505ZM6.33153 4.6677C6.33643 4.66279 6.41594 4.69252 6.52039 4.72733C6.70925 4.79188 6.95278 4.86646 7.24114 4.94604C7.45929 5.00604 7.67799 5.06403 7.89721 5.11998C8.19543 5.1945 8.44391 5.26411 8.44886 5.26411C8.48372 5.29892 8.98574 6.90424 9.15474 7.52059C9.21926 7.75426 9.26906 7.95303 9.26409 7.95303C9.25898 7.95807 9.20438 7.87351 9.13979 7.75921C8.55823 6.73529 7.63872 5.6965 6.57503 4.86144C6.43593 4.76213 6.33153 4.67265 6.33153 4.6677ZM8.77694 5.34366C8.80181 5.34366 8.91116 5.35858 9.04529 5.38838C9.89027 5.57724 11.4063 5.86553 12.3755 6.02958C12.5395 6.0544 12.6688 6.08429 12.6688 6.09416C12.6688 6.10416 12.6091 6.13888 12.5345 6.17869C12.3705 6.26316 11.7094 6.65578 11.4908 6.80492C10.939 7.17273 10.442 7.57035 10.0841 7.9282C9.94001 8.07237 9.81569 8.19165 9.81569 8.19165C9.81569 8.19165 9.78596 8.10719 9.761 8.00274C9.58218 7.31185 9.20933 6.28793 8.87135 5.56727C8.81666 5.45299 8.7719 5.34859 8.7719 5.33869C8.7719 5.34861 8.7719 5.34366 8.77694 5.34366V5.34366ZM13.0813 6.16377C13.1111 6.17367 13.1608 6.34269 13.2602 6.71544C13.4441 7.43619 13.5286 8.24138 13.4988 8.99191C13.4888 9.20067 13.4789 9.39448 13.4689 9.4194L13.454 9.46904L13.1956 9.38458C12.6637 9.21559 11.7989 8.96205 11.0584 8.75333C10.6358 8.63901 10.293 8.53463 10.293 8.5247C10.293 8.49484 10.9093 7.87853 11.1727 7.64495C11.6746 7.20252 13.0365 6.14883 13.0813 6.16377V6.16377ZM13.4242 6.21342C13.4392 6.19859 15.482 6.5514 16.4114 6.73036C17.1024 6.86454 18.1064 7.07332 18.166 7.09821C18.1958 7.10811 18.0914 7.16775 17.7584 7.31685C16.4462 7.90838 15.472 8.44013 14.5028 9.08634C14.2493 9.25533 14.0356 9.39448 14.0306 9.39448C14.0257 9.39448 14.0207 9.25038 14.0207 9.0764C14.0207 8.13206 13.8318 7.17772 13.4838 6.37253C13.4491 6.293 13.4192 6.21846 13.4242 6.21342V6.21342ZM18.7077 7.25726C18.7227 7.27215 18.658 7.67479 18.5984 7.91333C18.4194 8.65393 17.9373 9.75245 17.3459 10.7862C17.2415 10.9701 17.147 11.1193 17.137 11.1242C17.1272 11.1292 16.993 11.0546 16.8389 10.9651C16.2623 10.6271 15.6063 10.309 14.8905 10.0108C14.6917 9.92633 14.5177 9.85669 14.5127 9.84684C14.4779 9.81697 16.0784 8.75828 16.9234 8.25131C17.5944 7.84376 18.6878 7.23734 18.7077 7.25726V7.25726ZM19.0854 7.31687C19.1302 7.31687 20.0348 7.56542 20.5069 7.70459C21.675 8.05254 23.017 8.54458 23.8918 8.9422L24.2546 9.10628L24.0012 9.16588C21.864 9.65791 20.0348 10.2246 18.2703 10.9403C18.1262 11 17.9969 11.0497 17.9871 11.0497C17.9771 11.0497 18.0268 10.9354 18.0914 10.7962C18.6233 9.6679 18.9662 8.48991 19.0506 7.48584C19.0557 7.39139 19.0705 7.31687 19.0854 7.31687V7.31687ZM10.0792 9.38458C10.0941 9.36964 10.785 9.5337 11.1577 9.63799C11.7244 9.7971 12.9271 10.1997 12.9271 10.2295C12.9271 10.2345 12.793 10.3488 12.634 10.488C11.9829 11.0298 11.3566 11.6013 10.606 12.327C10.3823 12.5408 10.1935 12.7147 10.1836 12.7147C10.1736 12.7147 10.1687 12.6849 10.1736 12.6451C10.2879 11.8101 10.2631 10.7365 10.104 9.64798C10.0891 9.50876 10.0742 9.38953 10.0792 9.38458V9.38458ZM24.5977 9.39953C24.6075 9.4094 24.2795 9.92633 24.0708 10.2195C23.7726 10.647 23.3351 11.2137 22.346 12.4563C21.8242 13.1123 21.2376 13.853 21.0438 14.1015C20.8449 14.35 20.681 14.5587 20.6759 14.5587C20.671 14.5587 20.6065 14.4693 20.5368 14.3599C19.9801 13.5249 19.314 12.7942 18.5238 12.1382C18.3747 12.0139 18.2107 11.8797 18.156 11.8399C18.1013 11.8002 18.0566 11.7604 18.0566 11.7554C18.0566 11.7406 18.9015 11.3776 19.5427 11.1192C20.6661 10.6619 22.1968 10.1152 23.345 9.76229C23.9465 9.57344 24.5877 9.38953 24.5977 9.39953V9.39953ZM24.9803 9.49886C25.0002 9.49393 25.1195 9.55357 25.2637 9.63799C26.4715 10.3289 27.6544 11.2186 28.5889 12.1332C28.8523 12.3917 29.5034 13.0676 29.4934 13.0726C29.4934 13.0726 29.2648 13.0925 28.9964 13.1123C26.9039 13.2714 24.2249 13.7137 21.6502 14.335C21.4763 14.3747 21.3222 14.4095 21.3122 14.4095C21.3024 14.4095 21.4962 14.2157 21.7398 13.9821C23.2507 12.5258 23.9416 11.6063 24.7567 9.96605C24.871 9.72256 24.9704 9.51381 24.9803 9.49886C24.9754 9.49886 24.9754 9.49886 24.9803 9.49886V9.49886ZM13.9113 10.6322C13.9809 10.647 14.6271 10.9503 15.1142 11.1938C15.5615 11.4174 16.2325 11.7753 16.2673 11.8051C16.2722 11.8101 16.0336 11.9343 15.7405 12.0785C14.806 12.5457 14.0058 12.988 13.1707 13.495C12.9322 13.6392 12.7334 13.7585 12.7284 13.7585C12.7085 13.7585 12.7135 13.7385 12.8477 13.495C13.295 12.6799 13.6528 11.7057 13.8567 10.7564C13.8765 10.6818 13.8964 10.6322 13.9113 10.6322V10.6322ZM13.2651 10.7514C13.2801 10.7664 13.1111 11.3777 13.0067 11.7107C12.8029 12.3419 12.46 13.1322 12.127 13.7287C12.0474 13.8678 11.9281 14.0716 11.8635 14.1859L11.7393 14.3847L11.4609 14.1164C11.1379 13.8032 10.8744 13.6094 10.5365 13.4354C10.4022 13.3658 10.2979 13.3061 10.2979 13.2963C10.2979 13.2565 11.1478 12.4861 11.7989 11.9294C12.2661 11.5268 13.2503 10.7365 13.2651 10.7514V10.7514ZM17.2167 12.3768L17.4603 12.5358C18.0168 12.8987 18.6729 13.3807 19.175 13.8032C19.4582 14.0368 20.0049 14.5289 20.1144 14.6482L20.1739 14.7129L19.7714 14.8271C17.495 15.4583 15.7355 16.02 13.6827 16.7755C13.454 16.86 13.2602 16.9296 13.2452 16.9296C13.2155 16.9296 13.1906 16.9544 13.7026 16.4822C15.0148 15.2745 16.1778 13.9424 17.0427 12.6451L17.2167 12.3768V12.3768ZM16.1778 12.6352C16.1877 12.6451 15.5068 13.6044 15.0992 14.1462C14.6121 14.7923 13.7473 15.8758 13.1508 16.5816C12.9024 16.8749 12.6887 17.1184 12.6787 17.1234C12.6637 17.1284 12.6588 17.0538 12.6588 16.9395C12.6588 16.338 12.5047 15.6969 12.2363 15.1502C12.122 14.9215 12.1021 14.8668 12.127 14.842C12.2214 14.7575 13.6678 13.9324 14.5823 13.4404C15.1986 13.1123 16.1628 12.6253 16.1778 12.6352V12.6352ZM9.89522 14.176C9.91017 14.176 10.0245 14.2356 10.1537 14.3053C10.4718 14.4792 10.7551 14.673 11.0086 14.8818C11.0185 14.8917 10.8893 14.9962 10.7204 15.1203C10.2481 15.4583 9.53244 16.0001 9.11499 16.3332C8.67749 16.6811 8.66268 16.691 8.71233 16.6165C9.04041 16.1145 9.20436 15.8311 9.37839 15.4683C9.53244 15.1453 9.68649 14.7626 9.79584 14.4295C9.83558 14.2854 9.88532 14.176 9.89522 14.176ZM11.5703 15.4882C11.5951 15.4833 11.625 15.5279 11.7591 15.7268C12.0424 16.1492 12.2611 16.7159 12.3159 17.1732L12.3257 17.2726L11.6449 17.5361C10.4271 18.0082 9.30383 18.4754 8.54327 18.8233C8.3296 18.9228 7.95681 19.1016 7.7133 19.221C7.46973 19.3452 7.27091 19.4397 7.27091 19.4347C7.27091 19.4298 7.42496 19.3154 7.61383 19.1762C9.10007 18.0977 10.3873 16.9147 11.3516 15.7318C11.456 15.6075 11.5505 15.4931 11.5603 15.4882L11.5703 15.4882V15.4882ZM10.7999 15.6771C10.8198 15.697 10.2532 16.3381 9.86549 16.7307C8.90621 17.71 7.95685 18.4754 6.77884 19.221C6.62974 19.3154 6.49557 19.3999 6.48062 19.4099C6.44581 19.4298 6.49053 19.38 7.00747 18.8184C7.33555 18.4654 7.58403 18.1672 7.86735 17.7995C8.05621 17.556 8.09103 17.5212 8.36444 17.3272C9.0951 16.8004 10.78 15.6572 10.7999 15.6771Z" fill="url(#paint2_radial_792_68)"/>
<defs>
<linearGradient id="paint0_linear_792_68" x1="4.94725" y1="29.5878" x2="7.32507" y2="28.1828" gradientUnits="userSpaceOnUse">
<stop stop-color="#909CA9"/>
<stop offset="1" stop-color="#EDEDEE"/>
</linearGradient>
<linearGradient id="paint1_linear_792_68" x1="5.00181" y1="3.09954" x2="6.91506" y2="3.09954" gradientUnits="userSpaceOnUse">
<stop stop-color="#939FAB"/>
<stop offset="1" stop-color="#DCDEE1"/>
</linearGradient>
<radialGradient id="paint2_radial_792_68" cx="0" cy="0" r="1" gradientUnits="userSpaceOnUse" gradientTransform="translate(14.6563 11.8745) rotate(-171.457) scale(2.46671 4.93465)">
<stop stop-color="#EE352C"/>
<stop offset="1" stop-color="#A91D22"/>
</radialGradient>
</defs>
</svg>
