<svg width="30" height="34" viewBox="0 0 30 34" fill="none" xmlns="http://www.w3.org/2000/svg">
<path d="M23.6186 1.48877H2.56547C1.15447 1.48877 0 2.64345 0 4.0544V27.2721C0 28.6829 1.15447 29.8374 2.56547 29.8374H16.4316C16.2742 22.9381 18.6303 9.5486 23.6186 1.48877Z" fill="#0F80CC"/>
<path d="M22.8535 2.23706H2.56525C1.56336 2.23706 0.748047 3.05216 0.748047 4.05424V25.5779C5.34291 23.8145 12.2392 22.2928 17.0076 22.3619C17.9658 17.3516 20.782 7.53244 22.8535 2.23706V2.23706Z" fill="url(#paint0_linear_792_93)"/>
<path d="M28.5295 0.728876C27.0876 -0.55698 25.3418 -0.0404687 23.6188 1.4887C23.363 1.71588 23.1078 1.96792 22.8539 2.23715C19.9064 5.36399 17.1704 11.1559 16.3204 15.5792C16.6516 16.2507 16.9102 17.1075 17.0805 17.7621C17.1242 17.93 17.1636 18.0877 17.195 18.2218C17.2699 18.5391 17.3101 18.7449 17.3101 18.7449C17.3101 18.7449 17.2836 18.6449 17.1752 18.3305C17.1546 18.2702 17.1316 18.2043 17.1043 18.1268C17.0927 18.0948 17.0766 18.0559 17.0588 18.0144C16.8666 17.5675 16.3347 16.6241 16.1007 16.2134C15.9005 16.8039 15.7235 17.3564 15.5754 17.8563C16.2511 19.0926 16.6629 21.2114 16.6629 21.2114C16.6629 21.2114 16.6272 21.0741 16.4574 20.5948C16.3067 20.171 15.5559 18.8554 15.378 18.5479C15.0737 19.671 14.9529 20.4293 15.0619 20.6139C15.2735 20.9717 15.4751 21.589 15.6521 22.2716C16.052 23.8095 16.33 25.6817 16.33 25.6817C16.33 25.6817 16.3389 25.8057 16.354 25.9966C16.2985 27.2881 16.3318 28.6271 16.4318 29.8374C16.5643 31.4395 16.8137 32.8157 17.1316 33.5523L17.3474 33.4347C16.8806 31.9835 16.691 30.0817 16.774 27.8884C16.8996 24.536 17.6711 20.4931 19.0966 16.2792C21.5049 9.91817 24.8462 4.81442 27.9043 2.37706C25.117 4.89429 21.3446 13.0424 20.2153 16.0597C18.9509 19.4386 18.0548 22.6094 17.5148 25.6472C18.4465 22.7992 21.4591 21.575 21.4591 21.575C21.4591 21.575 22.9367 19.7528 24.6634 17.1493C23.6291 17.3852 21.9307 17.7891 21.3618 18.0282C20.5226 18.3802 20.2965 18.5002 20.2965 18.5002C20.2965 18.5002 23.0147 16.8449 25.3468 16.0954C28.5541 11.044 32.0482 3.86788 28.5295 0.728876" fill="#003B57"/>
<defs>
<linearGradient id="paint0_linear_792_93" x1="13.4944" y1="2.71472" x2="13.4944" y2="24.2799" gradientUnits="userSpaceOnUse">
<stop stop-color="#97D9F6"/>
<stop offset="0.920245" stop-color="#0F80CC"/>
<stop offset="1" stop-color="#0F80CC"/>
</linearGradient>
</defs>
</svg>
