<svg width="30" height="30" viewBox="0 0 30 30" fill="none" xmlns="http://www.w3.org/2000/svg">
<path d="M20.8668 18.8729C24.9105 12.4586 23.832 8.59602 24.1858 6.98179C24.3594 6.28843 24.5798 5.60763 24.8454 4.94407C24.3476 5.3753 23.9938 5.60679 23.2467 5.56421C21.747 5.47827 15.6362 4.85503 9.41154 10.513C3.60806 15.7884 4.52859 23.5406 4.74847 24.4666C4.97222 25.1239 5.72088 25.4483 6.18153 25.511C9.70652 26.1667 16.3872 25.1982 20.8691 18.8752" fill="#10AA50"/>
<path d="M8.16472 21.9838C6.68443 23.2458 5.80957 23.9642 4.74891 24.4706C4.74891 24.4706 3.62553 25.9578 2.37053 27.4683L2.82267 27.9205C3.90423 27.0546 5.03547 26.2527 6.21061 25.5189C5.91332 24.6456 6.98405 23.2094 8.16472 21.9838Z" fill="#B8C4C2"/>
<path d="M6.2085 25.5188C5.8903 24.654 6.99897 23.2031 8.16494 21.9845C10.278 20.164 12.2937 18.2336 14.2038 16.2012C15.2072 15.1358 23.7986 6.63578 24.7803 5.11523C24.5408 5.72328 24.3422 6.34661 24.1857 6.98108C23.8311 8.59609 24.9103 12.4594 20.8659 18.873C16.3956 25.189 9.74045 26.1629 6.2085 25.5188Z" fill="#12924F"/>
</svg>
