<svg width="30" height="42" viewBox="0 0 30 42" fill="none" xmlns="http://www.w3.org/2000/svg">
<path d="M19.6997 15.0055L15.5412 18.8744L11.6826 11.0911L13.6794 6.61449C14.1987 5.70567 15.0089 5.71606 15.5152 6.61449L19.6997 15.0055Z" fill="#FFA000"/>
<path d="M11.6822 11.0911L15.5407 18.8744L0 33.3311L11.6822 11.0911Z" fill="#F57F17"/>
<path d="M24.2472 9.09172C24.9898 8.37765 25.7584 8.62173 25.9545 9.63312L30 33.139L16.5911 41.1885C16.1237 41.4481 14.8773 41.5598 14.8773 41.5598C14.8773 41.5598 13.7426 41.4248 13.3103 41.1703L0 33.3311L24.2472 9.09172Z" fill="#FFCA28"/>
<path d="M11.6828 11.0911L0.00195312 33.3311L5.20427 0.827978C5.39642 -0.184702 5.97287 -0.282076 6.487 0.61116L11.6828 11.0911Z" fill="#FFA000"/>
</svg>
