<svg width="30" height="27" viewBox="0 0 30 27" fill="none" xmlns="http://www.w3.org/2000/svg">
<g clip-path="url(#clip0_792_135)">
<path d="M15.0001 16.0197C16.4768 16.0197 17.674 14.8225 17.674 13.3458C17.674 11.869 16.4768 10.6719 15.0001 10.6719C13.5233 10.6719 12.3262 11.869 12.3262 13.3458C12.3262 14.8225 13.5233 16.0197 15.0001 16.0197Z" fill="#61DAFB"/>
<path d="M15.0002 18.8242C22.9243 18.8242 29.348 16.3715 29.348 13.3459C29.348 10.3204 22.9243 7.86768 15.0002 7.86768C7.07608 7.86768 0.652344 10.3204 0.652344 13.3459C0.652344 16.3715 7.07608 18.8242 15.0002 18.8242Z" stroke="#61DAFB"/>
<path d="M10.2556 16.085C14.2176 22.9475 19.5536 27.2842 22.1738 25.7714C24.794 24.2587 23.7063 17.4692 19.7442 10.6067C15.7822 3.74427 10.4462 -0.592498 7.826 0.920282C5.20579 2.43306 6.29356 9.22253 10.2556 16.085Z" stroke="#61DAFB"/>
<path d="M10.2554 10.6067C6.29339 17.4692 5.20562 24.2587 7.82583 25.7715C10.446 27.2842 15.782 22.9475 19.7441 16.085C23.7061 9.22255 24.7939 2.43307 22.1737 0.920294C19.5534 -0.592486 14.2175 3.74429 10.2554 10.6067Z" stroke="#61DAFB"/>
</g>
<defs>
<clipPath id="clip0_792_135">
<rect width="30" height="26.6915" fill="white"/>
</clipPath>
</defs>
</svg>
