<svg width="30" height="30" viewBox="0 0 30 30" fill="none" xmlns="http://www.w3.org/2000/svg">
<g clip-path="url(#clip0_792_141)">
<path d="M15 30C23.2843 30 30 23.2843 30 15C30 6.71573 23.2843 0 15 0C6.71573 0 0 6.71573 0 15C0 23.2843 6.71573 30 15 30Z" fill="#5C2D91"/>
<path opacity="0.1" d="M4.60269 4.21875C3.07783 5.57757 1.84653 7.23349 0.984273 9.085C0.122015 10.9365 -0.353037 12.9446 -0.411766 14.9862C-0.470495 17.0278 -0.111663 19.0599 0.642734 20.9579C1.39713 22.8559 2.5312 24.5799 3.97543 26.0241C5.41966 27.4684 7.14362 28.6024 9.04164 29.3568C10.9397 30.1112 12.9717 30.4701 15.0133 30.4113C17.0549 30.3526 19.0631 29.8775 20.9146 29.0153C22.7661 28.153 24.422 26.9217 25.7808 25.3969L4.60269 4.21875Z" fill="white"/>
<path d="M3.46861 17.461C3.38111 17.4624 3.29428 17.4456 3.2136 17.4117C3.13291 17.3778 3.06014 17.3276 2.99986 17.2641C2.93793 17.2029 2.88899 17.1299 2.85597 17.0493C2.82295 16.9688 2.80652 16.8824 2.80767 16.7954C2.80705 16.7084 2.82372 16.6222 2.85671 16.5417C2.8897 16.4612 2.93836 16.3881 2.99986 16.3266C3.05954 16.2621 3.1321 16.2108 3.21285 16.1761C3.29359 16.1414 3.38073 16.124 3.46861 16.125C3.55637 16.1248 3.64324 16.1426 3.72386 16.1773C3.80449 16.2119 3.87715 16.2628 3.93736 16.3266C3.99992 16.3876 4.04959 16.4605 4.08341 16.541C4.11723 16.6215 4.13451 16.708 4.13424 16.7954C4.13505 16.8828 4.11802 16.9694 4.08416 17.05C4.05031 17.1306 4.00036 17.2035 3.93736 17.2641C3.87658 17.3269 3.8037 17.3767 3.72314 17.4105C3.64258 17.4444 3.55599 17.4615 3.46861 17.461Z" fill="white"/>
<path d="M12.7826 17.3437H11.5545L7.1623 10.528C7.0529 10.3601 6.96176 10.181 6.89043 9.99365H6.85293C6.89467 10.3828 6.91033 10.7743 6.8998 11.1655V17.3437H5.90137V8.79834H7.1998L11.4748 15.4921C11.6529 15.7702 11.7686 15.9608 11.8217 16.064H11.8451C11.7957 15.6471 11.7753 15.2274 11.7842 14.8077V8.79834H12.7826V17.3437Z" fill="white"/>
<path d="M19.5422 17.3437H15V8.79834H19.3313V9.70303H16.0219V12.5437H19.1062V13.4437H16.0219V16.4062H19.5469L19.5422 17.3437Z" fill="white"/>
<path d="M26.2496 9.70303H23.7652V17.3437H22.7668V9.70303H20.3105V8.79834H26.2496V9.70303Z" fill="white"/>
<path d="M12.2439 23.1562C11.9055 23.3201 11.5322 23.3989 11.1564 23.3859C10.9067 23.3971 10.6575 23.3548 10.4254 23.2619C10.1934 23.1689 9.98395 23.0274 9.81111 22.8468C9.46668 22.4613 9.28521 21.9572 9.30486 21.4406C9.29225 21.1608 9.33596 20.8814 9.43339 20.6189C9.53082 20.3564 9.67999 20.1162 9.87204 19.9124C10.0592 19.7207 10.2842 19.57 10.5328 19.4699C10.7813 19.3699 11.048 19.3226 11.3158 19.3312C11.6363 19.3202 11.9556 19.3761 12.2533 19.4952V19.964C11.9666 19.8053 11.6434 19.7245 11.3158 19.7296C11.1093 19.7238 10.9039 19.7627 10.7138 19.8436C10.5236 19.9245 10.3532 20.0455 10.2142 20.1984C9.92189 20.5314 9.77059 20.9651 9.79235 21.4077C9.77047 21.827 9.91155 22.2385 10.1861 22.5562C10.3178 22.6978 10.4786 22.8092 10.6574 22.8829C10.8362 22.9565 11.0288 22.9906 11.222 22.9827C11.582 22.9922 11.9374 22.9013 12.2486 22.7202L12.2439 23.1562Z" fill="#F2F2F2"/>
<path d="M14.1614 23.386C13.9748 23.392 13.789 23.3579 13.6168 23.2859C13.4445 23.2139 13.2897 23.1058 13.1629 22.9688C12.9066 22.6827 12.7735 22.3071 12.7926 21.9235C12.7809 21.7225 12.8093 21.5212 12.8761 21.3313C12.9429 21.1414 13.0467 20.9666 13.1817 20.8172C13.3194 20.6828 13.4832 20.5781 13.663 20.5096C13.8428 20.441 14.0348 20.4101 14.227 20.4188C14.4087 20.4091 14.5903 20.4389 14.7594 20.506C14.9285 20.5732 15.0811 20.6761 15.2067 20.8078C15.4558 21.1081 15.5815 21.4918 15.5582 21.8813C15.5779 22.2765 15.4416 22.6637 15.1785 22.9594C15.0493 23.0991 14.8917 23.2094 14.7162 23.283C14.5407 23.3566 14.3515 23.3917 14.1614 23.386V23.386ZM14.1942 20.8219C14.0652 20.8165 13.9367 20.8402 13.8182 20.8913C13.6997 20.9425 13.5943 21.0197 13.5098 21.1172C13.3294 21.3495 13.2395 21.6393 13.2567 21.9328C13.2403 22.2177 13.3305 22.4984 13.5098 22.7203C13.5952 22.8165 13.7009 22.8925 13.8193 22.9427C13.9376 22.993 14.0657 23.0163 14.1942 23.011C14.32 23.0184 14.4458 22.9969 14.562 22.9481C14.6782 22.8994 14.7817 22.8247 14.8645 22.7297C15.0349 22.4968 15.1179 22.2114 15.0989 21.9235C15.1174 21.6341 15.0345 21.3474 14.8645 21.1125C14.7828 21.0156 14.6798 20.9389 14.5635 20.8885C14.4472 20.838 14.3208 20.8153 14.1942 20.8219V20.8219Z" fill="#F2F2F2"/>
<path d="M17.7473 20.9625C17.646 20.8962 17.5258 20.8649 17.4051 20.8734C17.3106 20.8769 17.2185 20.9035 17.1368 20.9509C17.055 20.9983 16.9862 21.0651 16.9363 21.1453C16.7968 21.3662 16.7296 21.6251 16.7441 21.8859V23.3203H16.2754V20.5078H16.7441V21.0938C16.7957 20.9125 16.8982 20.7498 17.0395 20.625C17.1617 20.5189 17.3182 20.4606 17.4801 20.4609C17.5707 20.4569 17.6613 20.4696 17.7473 20.4984V20.9625Z" fill="#F2F2F2"/>
<path d="M20.4939 22.0312H18.5111C18.4978 22.2932 18.5831 22.5508 18.7502 22.7531C18.8371 22.8397 18.9413 22.9071 19.056 22.9507C19.1707 22.9943 19.2933 23.0132 19.4158 23.0062C19.7336 23.003 20.0409 22.8923 20.2877 22.6921V23.114C19.9979 23.305 19.6547 23.3986 19.308 23.3812C19.1331 23.39 18.9584 23.3602 18.7963 23.2937C18.6343 23.2273 18.4889 23.1259 18.3705 22.9968C18.1265 22.6924 18.0045 22.3081 18.0283 21.9187C18.0115 21.5283 18.1439 21.1462 18.3986 20.85C18.5146 20.716 18.6588 20.6095 18.821 20.5382C18.9831 20.4669 19.1591 20.4324 19.3361 20.4374C19.496 20.4285 19.6558 20.4559 19.8036 20.5176C19.9514 20.5793 20.0832 20.6737 20.1893 20.7937C20.4051 21.0783 20.5116 21.431 20.4893 21.7874L20.4939 22.0312ZM20.0252 21.6515C20.0347 21.4343 19.9684 21.2205 19.8377 21.0468C19.7736 20.9744 19.6939 20.9173 19.6046 20.88C19.5153 20.8426 19.4187 20.826 19.3221 20.8312C19.2212 20.83 19.1212 20.8497 19.0284 20.8893C18.9356 20.9288 18.852 20.9873 18.783 21.0609C18.6287 21.2241 18.5317 21.433 18.5064 21.6562L20.0252 21.6515Z" fill="#F2F2F2"/>
</g>
<defs>
<clipPath id="clip0_792_141">
<rect width="30" height="30" fill="white"/>
</clipPath>
</defs>
</svg>
