<svg width="30" height="30" viewBox="0 0 30 30" fill="none" xmlns="http://www.w3.org/2000/svg">
<g clip-path="url(#clip0_792_152)">
<path d="M2.01029 7.22349C-0.642831 11.0391 -0.314706 16.0022 1.71404 20.0672C1.76092 20.1647 1.81248 20.2604 1.86217 20.356L1.95592 20.5388C1.97467 20.5744 1.99529 20.6091 2.01498 20.6438C2.04967 20.7094 2.08529 20.7694 2.12092 20.8332L2.31498 21.1651L2.42561 21.3469L2.65061 21.6985L2.74623 21.8466C2.85217 22.0041 2.95998 22.1616 3.07154 22.3154L3.13529 22.4016C3.23193 22.5344 3.3307 22.6657 3.43154 22.7954L3.54404 22.9379L3.81779 23.2754L3.92279 23.401C4.04748 23.5482 4.17592 23.6944 4.30436 23.8369C4.31748 23.851 4.32311 23.8557 4.32686 23.8613C4.45422 23.9994 4.58361 24.1357 4.71498 24.2701L4.83967 24.3957L5.14904 24.6994L5.27561 24.8213C5.41484 24.9526 5.55642 25.0814 5.70029 25.2076L6.16529 25.6013L6.32467 25.7288L6.64623 25.9801L6.81779 26.1113L7.17873 26.3701L7.34748 26.4891C7.46279 26.5688 7.57998 26.6447 7.69811 26.7207L7.84998 26.8219C8.03094 26.9368 8.21377 27.0487 8.39842 27.1576L8.55029 27.2513L8.96279 27.4819C9.03779 27.5222 9.11467 27.5607 9.19061 27.5991L9.48498 27.7519L9.55342 27.7847L9.67529 27.8429L10.1422 28.0585L10.2406 28.1026C10.4208 28.1811 10.6024 28.2564 10.7853 28.3285L10.9165 28.381L11.4303 28.5713L11.4959 28.5938C11.6856 28.6591 11.8763 28.7216 12.0678 28.7813L12.2065 28.8226C12.394 28.8816 12.5965 28.9538 12.7972 28.9894C25.6353 31.3304 29.3628 21.2738 29.3628 21.2738C26.2315 25.3538 20.6722 26.4301 15.394 25.2319C15.1944 25.1869 15.0003 25.1251 14.8062 25.0669L14.66 25.0229C14.4702 24.9645 14.2814 24.903 14.0937 24.8382L14.0159 24.8101C13.8488 24.7508 13.6826 24.6892 13.5172 24.6254L13.3765 24.5691C13.1953 24.4978 13.0156 24.4228 12.8375 24.3441L12.7297 24.2972L12.275 24.0854L12.1437 24.0226C12.0256 23.9663 11.9094 23.9035 11.7922 23.8351L11.5578 23.7132C11.4153 23.6382 11.2765 23.5576 11.1359 23.4769L10.9934 23.3972C10.8089 23.2883 10.626 23.1764 10.445 23.0616C10.3953 23.0297 10.3465 22.996 10.2969 22.9632L9.90686 22.7035C9.86373 22.6754 9.8131 22.6435 9.78123 22.6154L9.41185 22.3482L9.24779 22.2244L8.91498 21.9638L8.76686 21.8447L8.35248 21.4951C8.33741 21.4819 8.32177 21.4694 8.30561 21.4576L7.86967 21.061L7.74779 20.9429L7.43654 20.6335L7.31467 20.5116C7.18342 20.3776 7.05592 20.2426 6.93967 20.1047C6.93311 20.0982 6.92654 20.0916 6.92092 20.0841C6.78818 19.9384 6.65816 19.7903 6.53092 19.6397L6.43717 19.5179L6.15592 19.171L6.06217 19.0426L5.73779 18.6113C2.79592 14.625 1.74404 9.11442 4.08217 4.59567L2.01029 7.22349ZM10.2509 4.00974C8.33092 6.77255 8.43498 10.4785 9.93217 13.3922C10.183 13.8833 10.4668 14.3569 10.7815 14.8097C11.0694 15.2222 11.3881 15.7126 11.7697 16.0435C11.9084 16.1963 12.0528 16.3435 12.2009 16.4907L12.3134 16.6032C12.4567 16.7429 12.6033 16.8792 12.7531 17.0119C12.7597 17.0166 12.7644 17.0232 12.7719 17.0279C12.9425 17.1779 13.115 17.3091 13.2903 17.4572L13.4065 17.5482C13.5824 17.6838 13.7619 17.8148 13.9447 17.941L13.9606 17.9522C14.0412 18.0085 14.1237 18.0601 14.2062 18.1144C14.2456 18.1397 14.2831 18.1669 14.3225 18.1913C14.4535 18.2754 14.5864 18.3567 14.7209 18.4351L14.7772 18.4679L15.1297 18.6554C15.1709 18.6788 15.2234 18.6985 15.2553 18.721L15.5019 18.8485C15.514 18.8551 15.5272 18.8597 15.5394 18.8654C15.7085 18.9496 15.8798 19.0293 16.0531 19.1044L16.1656 19.1513C16.3052 19.2106 16.4459 19.2675 16.5875 19.3219L16.7675 19.3876C16.8959 19.4342 17.0249 19.4789 17.1547 19.5216L17.33 19.5779C17.5147 19.6341 17.705 19.7091 17.8897 19.7401C27.8019 21.3826 30.0903 13.74 30.0903 13.74C28.0278 16.7119 24.034 18.1276 19.7703 17.0213C19.5818 16.9717 19.3946 16.9176 19.2087 16.8591C19.1525 16.8422 19.0962 16.8235 19.04 16.8047L18.6462 16.6697L18.4587 16.6041C18.3172 16.5495 18.1766 16.4926 18.0369 16.4335L17.9225 16.3866C17.7481 16.3108 17.5755 16.2308 17.405 16.1466L17.1453 16.0154L16.9953 15.9385C16.885 15.8786 16.7756 15.817 16.6672 15.7538L16.5884 15.7097C16.4543 15.6312 16.3218 15.5499 16.1909 15.466C16.1506 15.4407 16.1112 15.4126 16.0709 15.3863L15.8131 15.2157C15.6315 15.0898 15.4533 14.9592 15.2787 14.8238L15.1569 14.73C13.2819 13.2563 11.8119 11.2425 11.1087 8.96067C10.3719 6.59349 10.5303 3.93567 11.8072 1.77942L10.2509 4.00974ZM17.1809 1.60786C16.0503 3.2813 15.9378 5.34192 16.7234 7.1813C17.5512 9.13411 19.2481 10.665 21.229 11.4L21.4747 11.4938L21.5834 11.5275L21.9369 11.6213C27.41 12.6788 28.8931 8.81255 29.2897 8.24349C27.9894 10.1157 25.804 10.5647 23.1228 9.91411C22.9109 9.86255 22.6784 9.78567 22.474 9.71349C22.2117 9.62052 21.9545 9.51381 21.7034 9.3938C21.2269 9.16461 20.7743 8.88857 20.3525 8.56974C17.9534 6.75005 16.4628 3.26817 18.0284 0.440674" fill="#0868AC"/>
</g>
<defs>
<clipPath id="clip0_792_152">
<rect width="30" height="30" fill="white"/>
</clipPath>
</defs>
</svg>
