<svg width="30" height="30" viewBox="0 0 30 30" fill="none" xmlns="http://www.w3.org/2000/svg">
<path d="M30 23.2452C28.9087 23.5227 28.2337 23.2574 27.6281 22.348L23.3212 16.3893L22.6987 15.5643L17.6691 22.3677C17.0944 23.1862 16.4916 23.5424 15.4191 23.2527L21.8597 14.6071L15.8634 6.79772C16.8947 6.5971 17.6072 6.69928 18.24 7.62272L22.7072 13.6555L27.2072 7.65553C27.7837 6.8371 28.4034 6.52585 29.4384 6.82772L27.1134 9.91022L23.9634 14.0118C23.5884 14.4805 23.64 14.8012 23.985 15.254L30 23.2452ZM0.0075 14.4627L0.534375 11.8715C1.96875 6.74335 7.84688 4.61241 11.9006 7.78116C14.2697 9.64491 14.8584 12.2812 14.7412 15.2343H1.3875C1.18688 20.5499 5.01281 23.758 9.89063 22.1212C11.6016 21.5465 12.6094 20.2068 13.1137 18.5305C13.3697 17.6905 13.7934 17.5593 14.5828 17.7993C14.1797 19.8955 13.2703 21.6468 11.3484 22.7427C8.47687 24.3833 4.37812 23.8527 2.22187 21.5727C0.9375 20.2499 0.406875 18.5737 0.16875 16.7812C0.13125 16.4849 0.05625 16.2027 0 15.9187C0.005 15.4337 0.0075 14.9487 0.0075 14.4637V14.4627ZM1.41188 14.1065H13.4794C13.4006 10.2627 11.0072 7.53272 7.73625 7.50928C4.14562 7.48116 1.5675 10.1465 1.41188 14.1065V14.1065Z" fill="black"/>
</svg>
