<svg width="30" height="30" viewBox="0 0 30 30" fill="none" xmlns="http://www.w3.org/2000/svg">
<path d="M12.9954 0H17.9061V22.7062C15.3898 23.1844 13.5467 23.3752 11.5311 23.3752C5.54231 23.3752 2.4209 20.6677 2.4209 15.4753C2.4209 10.4737 5.73402 7.22531 10.8621 7.22531C11.659 7.22531 12.2684 7.28859 12.9964 7.47984L12.9954 0ZM12.9954 11.4295C12.4221 11.2387 11.9445 11.175 11.3393 11.175C8.85496 11.175 7.42059 12.7041 7.42059 15.3797C7.42059 17.992 8.79027 19.425 11.3112 19.425C11.8526 19.425 12.2984 19.3931 12.9987 19.2984L12.9954 11.4295ZM25.7047 7.575V18.9469C25.7047 22.8656 25.4178 24.7444 24.5581 26.3686C23.7612 27.9295 22.7103 28.9167 20.5446 30L15.9893 27.8344C18.155 26.8153 19.2064 25.9238 19.88 24.5531C20.5807 23.1469 20.8034 21.5269 20.8034 17.2594V7.575H25.7047ZM20.7992 0.02625H25.7047V5.05922H20.7992V0.02625Z" fill="#092E20"/>
</svg>
