<svg width="30" height="31" viewBox="0 0 30 31" fill="none" xmlns="http://www.w3.org/2000/svg">
<path d="M29.9831 6.99245C29.9942 7.03365 29.9999 7.07614 30 7.11882V13.7534C30 13.8385 29.9775 13.9222 29.9349 13.9959C29.8923 14.0695 29.8309 14.1307 29.7571 14.173L24.1932 17.379V23.7336C24.1932 23.9066 24.1014 24.0662 23.9515 24.1533L12.3374 30.8447C12.3108 30.8598 12.2818 30.8695 12.2528 30.8797C12.2419 30.8834 12.2316 30.89 12.2202 30.893C12.139 30.9144 12.0536 30.9144 11.9724 30.893C11.9592 30.8894 11.9471 30.8822 11.9344 30.8773C11.9078 30.8676 11.88 30.8592 11.8546 30.8447L0.242881 24.1533C0.169115 24.1109 0.107823 24.0497 0.0651818 23.9761C0.022541 23.9024 5.84481e-05 23.8188 0 23.7336L0 3.82997C0 3.78643 0.00604181 3.7441 0.0169171 3.70298C0.0205422 3.68908 0.0290007 3.67638 0.0338341 3.66247C0.0428968 3.63707 0.0513554 3.61107 0.0646474 3.58749C0.0737101 3.57177 0.0870021 3.55907 0.0978773 3.54456C0.111773 3.52521 0.124461 3.50525 0.140774 3.48832C0.15467 3.47442 0.172796 3.46414 0.188504 3.45204C0.206026 3.43753 0.221734 3.42181 0.241672 3.41032H0.242277L6.04846 0.0646229C6.12197 0.0222835 6.20531 0 6.29013 0C6.37495 0 6.45828 0.0222835 6.5318 0.0646229L12.338 3.41032H12.3392C12.3585 3.42241 12.3748 3.43753 12.3924 3.45144C12.4081 3.46353 12.4256 3.47442 12.4395 3.48772C12.4564 3.50525 12.4685 3.52521 12.483 3.54456C12.4933 3.55907 12.5071 3.57177 12.5156 3.58749C12.5295 3.61168 12.5374 3.63707 12.547 3.66247C12.5519 3.67638 12.5603 3.68908 12.5639 3.70359C12.5751 3.7448 12.5808 3.78728 12.5809 3.82997V16.2616L17.4191 13.4734V7.11822C17.4191 7.07589 17.4252 7.03296 17.4361 6.99245C17.4403 6.97793 17.4481 6.96524 17.453 6.95133C17.4626 6.92593 17.4711 6.89993 17.4844 6.87635C17.4935 6.86063 17.5067 6.84793 17.517 6.83341C17.5315 6.81406 17.5436 6.79411 17.5605 6.77718C17.5744 6.76327 17.5919 6.75299 17.6076 6.7409C17.6258 6.72639 17.6415 6.71067 17.6608 6.69918H17.6614L23.4682 3.35348C23.5417 3.31108 23.625 3.28876 23.7099 3.28876C23.7947 3.28876 23.878 3.31108 23.9515 3.35348L29.7577 6.69918C29.7783 6.71127 29.794 6.72639 29.8121 6.74029C29.8272 6.75239 29.8447 6.76327 29.8586 6.77657C29.8755 6.79411 29.8876 6.81406 29.9021 6.83341C29.913 6.84793 29.9263 6.86063 29.9347 6.87635C29.9486 6.89993 29.9565 6.92593 29.9662 6.95133C29.9716 6.96524 29.9795 6.97793 29.9831 6.99245V6.99245ZM29.0321 13.4734V7.95631L27.0002 9.12697L24.1932 10.7445V16.2616L29.0327 13.4734H29.0321ZM23.2259 23.4537V17.9329L20.4648 19.5111L12.5803 24.0148V29.5875L23.2259 23.4537ZM0.967898 4.66745V23.4537L11.6124 29.5869V24.0154L6.05148 20.8656L6.04966 20.8644L6.04725 20.8632C6.02852 20.8523 6.01281 20.8366 5.99529 20.8233C5.98018 20.8112 5.96266 20.8015 5.94937 20.7882L5.94816 20.7864C5.93245 20.7713 5.92158 20.7526 5.90829 20.7356C5.8962 20.7193 5.8817 20.7054 5.87203 20.6885L5.87143 20.6866C5.86056 20.6685 5.85391 20.6467 5.84605 20.6262C5.8382 20.608 5.82793 20.5911 5.8231 20.5718V20.5711C5.81705 20.5482 5.81585 20.524 5.81343 20.5004C5.81101 20.4823 5.80618 20.4641 5.80618 20.446V7.45563L2.99976 5.83751L0.967898 4.66805V4.66745ZM6.29073 1.043L1.45306 3.82997L6.28952 6.61694L11.1266 3.82936L6.28952 1.043H6.29073ZM8.80654 18.436L11.613 16.8191V4.66745L9.5811 5.83811L6.77408 7.45563V19.6073L8.80654 18.436ZM23.7099 4.33185L18.8728 7.11882L23.7099 9.9058L28.5463 7.11822L23.7099 4.33185ZM23.2259 10.7445L20.4189 9.12697L18.387 7.95631V13.4734L21.1935 15.0903L23.2259 16.2616V10.7445ZM12.0957 23.1773L19.1906 19.1235L22.7371 17.0979L17.9037 14.3127L12.3386 17.5193L7.26648 20.4417L12.0957 23.1773Z" fill="#FF2D20"/>
</svg>
