<svg width="50" height="57" viewBox="0 0 50 57" fill="none" xmlns="http://www.w3.org/2000/svg">
<path d="M49.9975 16.5216C49.9971 15.5767 49.795 14.7417 49.3863 14.0251C48.9849 13.3205 48.3837 12.7298 47.5773 12.2629C40.9209 8.42477 34.2581 4.5984 27.6039 0.756387C25.8099 -0.279289 24.0706 -0.241532 22.2899 0.809012C19.6405 2.37152 6.37564 9.97124 2.4229 12.2607C0.795048 13.2031 0.00293448 14.6453 0.00254322 16.5198C0 24.2385 0.00254322 31.9569 0 39.6758C0 40.6 0.193871 41.4187 0.584548 42.1245C0.986181 42.8505 1.59577 43.4574 2.42075 43.9349C6.37369 46.2244 19.6403 53.8235 22.2891 55.3864C24.0706 56.4375 25.8099 56.4751 27.6044 55.439C34.2589 51.5968 40.9221 47.7707 47.5794 43.9326C48.4044 43.4552 49.014 42.848 49.4156 42.1226C49.8057 41.4167 50 40.598 50 39.6736C50 39.6736 50 24.2404 49.9975 16.5216Z" fill="#A179DC"/>
<path d="M25.0769 28.0227L0.584961 42.1246C0.986593 42.8506 1.59618 43.4575 2.42116 43.935C6.3741 46.2245 19.6407 53.8236 22.2895 55.3865C24.071 56.4377 25.8103 56.4752 27.6049 55.4391C34.2593 51.5969 40.9225 47.7708 47.5799 43.9327C48.4048 43.4553 49.0144 42.8481 49.4161 42.1227L25.0769 28.0227Z" fill="#280068"/>
<path d="M49.9971 16.5216C49.9967 15.5767 49.7947 14.7417 49.386 14.0251L25.0762 28.0226L49.4153 42.1226C49.8054 41.4167 49.9993 40.598 49.9997 39.6737C49.9997 39.6737 49.9997 24.2405 49.9971 16.5216Z" fill="#390091"/>
<path d="M39.4968 22.7507V25.3866H42.1327V22.7507H43.4506V25.3866H46.0865V26.7046H43.4506V29.3404H46.0865V30.6584H43.4506V33.2943H42.1327V30.6584H39.4968V33.2943H38.1789V30.6584H35.543V29.3404H38.1789V26.7046H35.543V25.3866H38.1789V22.7507H39.4968ZM42.1327 26.7046H39.4968V29.3404H42.1327V26.7046Z" fill="white"/>
<path d="M25.1301 9.5127C32.0053 9.5127 38.008 13.2466 41.2231 18.7966L41.1917 18.7432L33.1026 23.4009C31.5089 20.7024 28.5872 18.8814 25.2356 18.8438L25.1301 18.8433C20.0191 18.8433 15.8755 22.9866 15.8755 28.0976C15.8755 29.769 16.3211 31.3358 17.096 32.689C18.6912 35.4739 21.69 37.3522 25.1301 37.3522C28.5913 37.3522 31.6072 35.45 33.1943 32.6353L33.1558 32.7029L41.2327 37.382C38.0528 42.8851 32.1324 46.6074 25.3371 46.6816L25.1301 46.6828C18.2331 46.6828 12.2134 42.9259 9.00637 37.3465C7.44073 34.6227 6.54492 31.465 6.54492 28.0976C6.54492 17.8336 14.8656 9.5127 25.1301 9.5127Z" fill="white"/>
</svg>
