<svg width="50" height="50" viewBox="0 0 50 50" fill="none" xmlns="http://www.w3.org/2000/svg">
<path d="M24.8198 0C12.1267 9.05624e-07 12.9193 5.5045 12.9193 5.5045L12.9334 11.2071H25.0462V12.9193H8.12232C8.12232 12.9193 0 11.9981 0 24.8056C-9.05624e-07 37.6131 7.08934 37.1589 7.08934 37.1589H11.3203V31.2157C11.3203 31.2157 11.0922 24.1264 18.2964 24.1264C25.5006 24.1264 30.3101 24.1264 30.3101 24.1264C30.3101 24.1264 37.0598 24.2355 37.0598 17.6031C37.0598 10.9706 37.0598 6.63653 37.0598 6.63653C37.0598 6.63653 38.0846 0 24.8198 0ZM18.1408 3.83475C19.3459 3.83475 20.3199 4.80878 20.3199 6.01391C20.3199 7.21904 19.3459 8.19307 18.1408 8.19307C16.9357 8.19307 15.9616 7.21904 15.9616 6.01391C15.9616 4.80878 16.9357 3.83475 18.1408 3.83475Z" fill="url(#paint0_linear_791_42)"/>
<path d="M25.1803 49.7397C37.8734 49.7397 37.0808 44.2352 37.0808 44.2352L37.0666 38.5326H24.9539V36.8204H41.8778C41.8778 36.8204 50.0001 37.7416 50.0001 24.9341C50.0001 12.1267 42.9107 12.5808 42.9107 12.5808H38.6798V18.524C38.6798 18.524 38.9078 25.6133 31.7036 25.6133C24.4994 25.6133 19.69 25.6133 19.69 25.6133C19.69 25.6133 12.9402 25.5042 12.9402 32.1367C12.9402 38.7691 12.9402 43.1032 12.9402 43.1032C12.9402 43.1032 11.9154 49.7397 25.1803 49.7397ZM31.8593 45.905C30.6542 45.905 29.6801 44.931 29.6801 43.7258C29.6801 42.5207 30.6542 41.5467 31.8593 41.5467C33.0644 41.5467 34.0384 42.5207 34.0384 43.7258C34.0384 44.931 33.0644 45.905 31.8593 45.905Z" fill="url(#paint1_linear_791_42)"/>
<defs>
<linearGradient id="paint0_linear_791_42" x1="4.8051" y1="4.34769" x2="29.5286" y2="29.1539" gradientUnits="userSpaceOnUse">
<stop stop-color="#387EB8"/>
<stop offset="1" stop-color="#366994"/>
</linearGradient>
<linearGradient id="paint1_linear_791_42" x1="20.014" y1="20.1284" x2="46.5672" y2="45.5677" gradientUnits="userSpaceOnUse">
<stop stop-color="#FFE052"/>
<stop offset="1" stop-color="#FFC331"/>
</linearGradient>
</defs>
</svg>
