<svg width="50" height="27" viewBox="0 0 50 27" fill="none" xmlns="http://www.w3.org/2000/svg">
<path d="M0 13.1508C0 20.4138 11.1931 26.3018 25 26.3018C38.8068 26.3018 50 20.4138 50 13.1508C50 5.88793 38.8068 -9.55163e-05 25 -9.55163e-05C11.1931 -9.55163e-05 0 5.88793 0 13.1508Z" fill="url(#paint0_radial_791_9)"/>
<path d="M25 25.325C38.2675 25.325 49.0233 19.8742 49.0233 13.1504C49.0233 6.42669 38.2675 0.975856 25 0.975856C11.7324 0.975856 0.976562 6.42669 0.976562 13.1504C0.976562 19.8742 11.7324 25.325 25 25.325Z" fill="#777BB3"/>
<path d="M13.5829 14.6603C14.6738 14.6603 15.4882 14.4591 16.0036 14.0625C16.5134 13.67 16.8655 12.9899 17.05 12.0413C17.2221 11.1546 17.1565 10.5355 16.8553 10.2014C16.5472 9.86011 15.8811 9.68704 14.8756 9.68704H13.1322L12.1657 14.6603H13.5829ZM7.88057 20.7864C7.79964 20.7864 7.72278 20.7502 7.67133 20.6876C7.61979 20.6252 7.5989 20.5429 7.61436 20.4634L10.1758 7.28425C10.2006 7.15684 10.3123 7.06479 10.4421 7.06479H15.9628C17.6978 7.06479 18.9892 7.53589 19.8009 8.46516C20.617 9.39932 20.869 10.7051 20.5499 12.3462C20.4201 13.0148 20.1967 13.6357 19.8861 14.1916C19.5752 14.7482 19.1642 15.2631 18.6644 15.7225C18.0662 16.2824 17.3891 16.6883 16.6538 16.9272C15.9301 17.163 15.0008 17.2825 13.8916 17.2825H11.6562L11.0178 20.5668C10.993 20.6943 10.8814 20.7864 10.7516 20.7864H7.88057Z" fill="black"/>
<path d="M13.3556 9.95828H14.8754C16.089 9.95828 16.5105 10.2246 16.6538 10.3833C16.8914 10.6468 16.9362 11.2023 16.7835 11.9898C16.6119 12.8714 16.2938 13.4965 15.8379 13.8475C15.3711 14.2069 14.6123 14.389 13.5827 14.389H12.4945L13.3556 9.95828ZM15.9626 6.7935H10.4418C10.1822 6.7935 9.9589 6.9776 9.90935 7.2325L7.34787 20.4116C7.31695 20.5707 7.35872 20.7352 7.46171 20.8602C7.56479 20.9853 7.71833 21.0576 7.88037 21.0576H10.7513C11.0111 21.0576 11.2343 20.8735 11.2839 20.6186L11.8796 17.5538H13.8914C15.0291 17.5538 15.9868 17.4297 16.7378 17.1851C17.5101 16.9342 18.2206 16.5087 18.8495 15.9206C19.3696 15.4421 19.798 14.905 20.1226 14.3241C20.4473 13.7429 20.6806 13.0948 20.816 12.3979C21.1519 10.6704 20.879 9.28717 20.005 8.28674C19.1395 7.29589 17.7793 6.7935 15.9626 6.7935ZM11.8363 14.9315H13.5827C14.7402 14.9315 15.6023 14.7135 16.1688 14.2774C16.7354 13.8412 17.1175 13.1132 17.3161 12.0931C17.5061 11.1136 17.4196 10.4224 17.0565 10.0198C16.693 9.61712 15.9661 9.41575 14.8754 9.41575H12.9084L11.8363 14.9315V14.9315ZM15.9626 7.33604C17.6234 7.33604 18.8349 7.77187 19.5965 8.64363C20.3579 9.51539 20.5872 10.7322 20.2834 12.2944C20.1584 12.938 19.9469 13.5263 19.6491 14.0594C19.351 14.5928 18.9617 15.0805 18.4807 15.5228C17.9074 16.0593 17.2705 16.4416 16.5698 16.6692C15.869 16.8976 14.9764 17.0112 13.8914 17.0112H11.4322L10.7513 20.5151H7.88037L10.4418 7.33604H15.9626" fill="white"/>
<path d="M27.1317 17.2827C27.0507 17.2827 26.9739 17.2465 26.9225 17.184C26.8708 17.1215 26.8499 17.0393 26.8654 16.9597L27.9985 11.1285C28.1063 10.5739 28.0797 10.1759 27.9237 10.0077C27.8282 9.90489 27.5414 9.73245 26.6933 9.73245H24.6406L23.216 17.0632C23.1912 17.1907 23.0795 17.2827 22.9497 17.2827H20.1014C20.0203 17.2827 19.9436 17.2465 19.892 17.184C19.8405 17.1215 19.8196 17.0392 19.8351 16.9597L22.3965 3.78059C22.4213 3.65318 22.533 3.56113 22.6628 3.56113H25.5111C25.5922 3.56113 25.6689 3.5973 25.7205 3.65978C25.772 3.72236 25.7929 3.80455 25.7774 3.88412L25.1593 7.065H27.3676C29.0499 7.065 30.1907 7.36158 30.8551 7.97175C31.5324 8.59422 31.7437 9.5895 31.4833 10.9303L30.2915 17.0632C30.2667 17.1907 30.1551 17.2827 30.0252 17.2827H27.1317Z" fill="black"/>
<path d="M25.5119 3.2896H22.6636C22.4038 3.2896 22.1806 3.47369 22.131 3.72859L19.5695 16.9077C19.5386 17.0668 19.5804 17.2313 19.6835 17.3563C19.7866 17.4814 19.9401 17.5537 20.1021 17.5537H22.9504C23.2101 17.5537 23.4335 17.3696 23.483 17.1147L24.8649 10.0034H26.6941C27.5407 10.0034 27.7184 10.1843 27.7255 10.1921C27.7769 10.2473 27.8445 10.5032 27.733 11.0765L26.5999 16.9077C26.569 17.0668 26.6107 17.2313 26.7138 17.3563C26.8169 17.4814 26.9704 17.5537 27.1325 17.5537H30.026C30.2857 17.5537 30.509 17.3696 30.5586 17.1147L31.7502 10.9818C32.0299 9.54221 31.7907 8.46229 31.0394 7.77183C30.3226 7.11346 29.1218 6.79346 27.3684 6.79346H25.489L26.0445 3.93566C26.0753 3.77661 26.0337 3.61204 25.9306 3.48708C25.8275 3.36202 25.674 3.2896 25.5119 3.2896ZM25.5119 3.83213L24.831 7.33599H27.3684C28.965 7.33599 30.0662 7.61467 30.6723 8.17131C31.2784 8.72831 31.46 9.63082 31.2177 10.8784L30.026 17.0112H27.1325L28.2656 11.18C28.3945 10.5167 28.3471 10.0642 28.1232 9.82297C27.8992 9.58172 27.4228 9.46092 26.6941 9.46092H24.4176L22.9504 17.0112H20.1021L22.6636 3.83213H25.5119Z" fill="white"/>
<path d="M35.9901 14.6603C37.081 14.6603 37.8955 14.4591 38.4108 14.0625C38.9206 13.6701 39.2727 12.99 39.4573 12.0413C39.6294 11.1546 39.5638 10.5355 39.2625 10.2014C38.9544 9.86011 38.2883 9.68704 37.2829 9.68704H35.5394L34.5729 14.6603H35.9901ZM30.2879 20.7864C30.2069 20.7864 30.1301 20.7502 30.0786 20.6876C30.0271 20.6252 30.0061 20.5429 30.0216 20.4634L32.5831 7.28425C32.6079 7.15684 32.7195 7.06479 32.8494 7.06479H38.37C40.1051 7.06479 41.3964 7.53589 42.2082 8.46516C43.0243 9.39923 43.2762 10.705 42.9572 12.3462C42.8272 13.0148 42.6039 13.6357 42.2933 14.1916C41.9824 14.7482 41.5714 15.2631 41.0716 15.7225C40.4734 16.2824 39.7963 16.6883 39.061 16.9272C38.3374 17.163 37.408 17.2825 36.2988 17.2825H34.0633L33.4252 20.5668C33.4003 20.6943 33.2887 20.7864 33.1588 20.7864H30.2879Z" fill="black"/>
<path d="M35.7637 9.95828H37.2835C38.4971 9.95828 38.9187 10.2246 39.0619 10.3833C39.2996 10.6468 39.3445 11.2023 39.1916 11.9897C39.02 12.8714 38.7018 13.4965 38.246 13.8475C37.7792 14.2069 37.0204 14.389 35.9908 14.389H34.9027L35.7637 9.95828ZM38.3707 6.7935H32.8501C32.5904 6.7935 32.3671 6.9776 32.3176 7.2325L29.7561 20.4116C29.7251 20.5707 29.7669 20.7352 29.8699 20.8602C29.973 20.9853 30.1265 21.0576 30.2886 21.0576H33.1595C33.4192 21.0576 33.6425 20.8735 33.6921 20.6186L34.2877 17.5538H36.2995C37.4372 17.5538 38.3949 17.4297 39.1459 17.1851C39.9182 16.9342 40.6289 16.5087 41.2578 15.9205C41.7779 15.442 42.2061 14.905 42.5308 14.3241C42.8555 13.7429 43.0887 13.0948 43.2241 12.3979C43.56 10.6704 43.2871 9.28708 42.4131 8.28664C41.5476 7.29589 40.1875 6.7935 38.3707 6.7935ZM34.2445 14.9315H35.9908C37.1483 14.9315 38.0105 14.7135 38.5769 14.2774C39.1436 13.8412 39.5257 13.1132 39.7242 12.0931C39.9143 11.1136 39.8278 10.4224 39.4646 10.0198C39.1011 9.61712 38.3742 9.41575 37.2835 9.41575H35.3165L34.2445 14.9315ZM38.3707 7.33604C40.0315 7.33604 41.243 7.77187 42.0046 8.64363C42.7661 9.51539 42.9953 10.7322 42.6915 12.2944C42.5665 12.938 42.355 13.5263 42.0572 14.0594C41.7591 14.5928 41.3698 15.0805 40.8888 15.5228C40.3155 16.0593 39.6787 16.4416 38.9779 16.6692C38.2771 16.8976 37.3845 17.0112 36.2995 17.0112H33.8404L33.1595 20.5151H30.2886L32.8501 7.33604H38.3707" fill="white"/>
<defs>
<radialGradient id="paint0_radial_791_9" cx="0" cy="0" r="1" gradientUnits="userSpaceOnUse" gradientTransform="translate(15.0101 4.62336) scale(32.8285)">
<stop stop-color="#AEB2D5"/>
<stop offset="0.3" stop-color="#AEB2D5"/>
<stop offset="0.75" stop-color="#484C89"/>
<stop offset="1" stop-color="#484C89"/>
</radialGradient>
</defs>
</svg>
