<svg xmlns="http://www.w3.org/2000/svg" xmlns:xlink="http://www.w3.org/1999/xlink" width="829" height="332" fill="none" xmlns:v="https://vecta.io/nano"><g fill="#8a8e8e"><use xlink:href="#B"/><path d="M828.003 10.712c-.3-10.9-.4-11-11.5-10.6-15.5.6-30.2 4.2-44.3 10.4-35 15.4-63.7 38.7-87.4 68.5-3 3.8-6.3 6.4-11.1 7.5-8.8 2.1-17.6 4.8-26.4 7.1-1.9.5-3.7 1.2-5.1 2.8l-22.9 27.6c-3.5 4.3-3 5.1 2.6 6.8l30 8.8c2.4.7 3.2 1.6 3.2 4-.1 4.4.6 8.8 2.9 12.5 2.3 3.6 1.1 5.6-1.2 8.5-10 11.9-9.9 12 1.9 22.2.1.1.2.2.3.4 1.9 1.9 3.5 1.9 5.4-.3 3-3.5 6.4-6.8 9.4-10.3 1.3-1.5 2.6-2.4 4.7-1.8 5.5 1.7 11.2 1.6 16.8.8 3.4-.5 4.6.9 5.6 3.8l10.3 28.5c1.8 4.9 3.2 5.2 6.9 1.7l25.3-24.1c1.5-1.4 2.4-2.8 2.8-5 1.4-9 3.3-17.9 4.8-26.9.7-4.7 2.5-8.4 6.2-11.8 20.2-18.5 37.6-39.5 51.1-63.5 11.3-20 19.299-41.2 19.799-64.5-.1-1.1-.099-2.1-.099-3.1zm-86.1 107.9c-18.1.1-32.9-14.7-32.9-32.9 0-18.4 14.5-33 32.8-32.9 18.3 0 33 14.7 33 32.9 0 18-14.7 32.8-32.9 32.9zm-680.1 94c-34.4 0-61.5 26-61.8 59.2-.3 33.3 26.8 59.6 61.6 59.6 34.4.1 61.1-25.9 61.2-59.4.1-33.7-26.3-59.4-61-59.4zm-.1 89.8c-16.2 0-28.8-13.4-28.8-30.6s12.2-30.2 28.5-30.2c16.7 0 28.9 13.2 28.9 31.4.1 16.5-12.5 29.5-28.6 29.4zm95.799-42l34-40.2c3.1-3.7 6.2-5.7 11.3-5.5 10.1.5 20.2.1 31.4.1l-20.6 23.5-20.1 22.8c-2.2 2.4-2 3.8-.3 6.2l39.2 57c.9 1.2 2.9 2.5 1.9 4.2-.8 1.3-2.8.5-4.2.5-9.5.1-19-.1-28.5.1-3.2.1-5.2-1-6.9-3.7l-23.9-35.5c-1.8-2.7-2.5-2.2-4.6-.3-6.6 5.9-10.1 12.7-8.8 21.8.7 4.6 0 9.3.2 14 .1 2.9-1.1 3.8-3.8 3.7-8.3-.1-16.6-.1-25 0-2.8.1-3.3-1.1-3.3-3.6v-107.4c0-3.1 1.3-3.5 3.9-3.5h24c3.3-.1 4.3 1.1 4.2 4.3l-.1 41.5zm61.9 11.8c0-36.8 31.2-63.9 67.8-59.2 15.8 2 28.8 8.5 38.8 20.9 1.8 2.2 1.8 3.2-.6 4.9-6.1 4.4-12 8.9-17.7 13.7-2.9 2.5-4.4 1.9-6.8-.6-10.7-11.3-25.5-13.2-36.8-5.2-11.7 8.4-15.4 27.1-8.1 41.1 6.4 12.2 20 17.3 33.1 12.7 5.5-1.9 9.8-5.6 13.5-9.9 1.6-1.9 2.6-2.2 4.8-.6 6.1 4.6 12.3 9 18.6 13.3 2.3 1.6 2.5 2.6.7 5-15.6 20.4-43.1 28.5-68.1 20-24-8.2-39.2-30-39.2-56.1zm333.801-115c-1.3-27.3-19.6-44.6-45.2-42.6-8.4.7-15.3 4.6-21.7 11.4 0-1.9-.1-2.9 0-3.8.7-4.2-.9-5.5-5.1-5.1-5.3.4-10.6.2-16 0-2.5-.1-3 .7-3 3.1v105.3c0 2.3.6 3.2 3 3.1 6.2-.2 12.3-.3 18.5 0 3.5.2 4-1.2 3.9-4.2-.2-9.8-.1-19.5-.1-30.5 9.7 9 20.3 11.2 31.8 9.1 21.2-3.8 35-22.7 33.9-45.8zm-45.9 22.7c-11.7 0-20.8-9.2-20.7-20.9.1-11.8 9.3-21.1 20.8-21 11.3.1 20.2 9.2 20.4 20.8.2 11.8-8.8 21-20.5 21.1zm-476.401-16.3h4.5c2.8 0 6-.8 8.4.3s1.1 4.7 2.1 7.1c2.1 5.1 5.8 7.9 11 7.6 4.9-.3 7.9-3 9.4-7.6s0-8.7-4.9-11.2c-7.2-3.7-14.8-6.7-22.1-10.2-8.8-4.2-16.4-9.8-19.6-19.5-3.9-11.6-1.6-22.1 7-30.8 13.8-14.1 39.8-16 55.5-4 7.9 6 11.8 14.1 12.2 24 .1 2.6-.8 3.1-3.1 3.1-7.5-.1-15-.2-22.5.1-3.2.1-2.9-2-3.4-3.7-1.8-5.7-5.6-8.2-11.3-7-3.4.7-6.2 2.6-7 6.2-.8 3.7 0 6.9 3.4 9.2 5 3.4 10.6 5.5 16 8 5.3 2.4 10.5 5 15.3 8.2 11.8 7.7 15.4 18.7 13.2 32-2.2 12.8-9.5 21.5-22 25.2-12.1 3.6-24.3 3.5-36.2-1.2-13.2-5.3-21.3-18.8-20.5-33 .1-2.2.8-2.9 2.9-2.8 3.7.1 7.7 0 11.7 0zm213.9-43.4c0-2.5-.9-3.1-3.2-3-5.2.1-10.3 0-15.5 0-6.5 0-6.5 0-6.7 6.4 0 .2-.3.5-.5.7-15.5-16.8-43.5-10.4-55.9 4.9-14.4 17.7-12.9 47.5 3.4 63.5 12.7 12.4 39.3 16.3 53.1.2 0 1.7.1 2.5 0 3.3-.7 3.7.7 4.9 4.5 4.6 6-.4 12-.2 18 0 2.2 0 2.8-.6 2.8-2.8v-77.8zm-46 59.7c-11.6 0-20.2-8.8-20.3-20.7 0-12.2 8.7-21.2 20.3-21.2 11.7.1 20.8 9.3 20.6 21 0 12.1-8.7 20.9-20.6 20.9zm223.1 13.6c-8.8 10.1-20.4 12.7-33.9 8-10.8-3.8-19.3-15-19.4-26.6l-.3-54.4c0-2.6.7-3.5 3.3-3.4a285.28 285.28 0 0 0 18.5 0c2.9-.1 3.6.9 3.6 3.6l-.1 39.4c0 2.5 0 5 .2 7.5.7 8 4.6 11.8 11.9 12 8.7.2 13.6-3.6 14.7-11.6 1-7.7.1-15.4.3-23.1.2-7.8.2-15.6 0-23.4-.1-3.2.6-4.5 4.1-4.4 5.8.3 11.6.2 17.5 0 2.9-.1 4.1.7 4.1 3.9v76.3c0 2.6-.7 3.5-3.4 3.4-4.5-.2-9 0-13.5 0-7.3 0-7.3 0-7.6-7.2z"/><path d="M111.802 168.712l.1-27.9c.1-3.1-.5-4.3-4-4.2-8.1.2-8.1 0-8.1-8.2v-1.5c0-9.2 0-9.3 8.9-9.5 2.8-.1 3.2-1.1 3.2-3.5l-.1-20.9c-.1-2.7.7-3.4 3.3-3.3a285.28 285.28 0 0 0 18.5 0c3-.1 4.1.7 4 3.9-.2 6.6.1 13.3-.1 19.9-.1 3 .8 4 3.9 4 8.2 0 8.2.1 8.2 8.6v.5c0 3.2 1 7-.4 9.3-1.7 2.7-5.8.9-8.8.9-3.4 0-2.7 2-2.7 3.9l.1 55.4c0 3.8-.8 5.3-4.9 5-5.5-.4-11-.4-16.4 0-4 .3-4.6-1.2-4.5-4.7l-.2-27.7zm210.4-.2l.1-27.9c0-2.9-.4-4.1-3.7-4-8.7.1-8.8-.1-8.8-8.7v-1.5c0-8.9 0-9.1 8.7-9.1 3.2 0 3.9-1.1 3.8-4-.2-6.6.1-13.3-.1-19.9-.1-3.2.9-3.9 3.9-3.8a267.08 267.08 0 0 0 17.9 0c2.8-.1 3.7.6 3.6 3.5-.2 6.8 0 13.6-.1 20.4-.1 2.6.3 3.8 3.4 3.8 8.6.1 8.6.3 8.6 8.8v.5c0 3.1 1 7.1-.4 9.2-1.7 2.4-5.9.8-8.9.8-3.5-.1-2.6 2.2-2.6 4l.1 55.3c0 3.6-.5 5.3-4.7 5-5.8-.4-11.6-.2-17.4 0-2.7.1-3.4-.8-3.3-3.4l-.1-29zm-36.799-43.7c4.3-6.7 9.9-9.7 17-10.3 2.7-.2 3.9.3 3.8 3.4a282.21 282.21 0 0 0 0 18.4c.1 2.5-.5 3.7-3.2 3.6-1.5-.1-3 .4-4.4.6-8.3 1.4-11.9 5.5-12 13.8l.1 42.4c0 3.3-.9 4.2-4.1 4.1-6-.3-12-.2-17.9 0-2.9.1-3.5-.9-3.5-3.7v-76.3c0-2.7.7-3.9 3.6-3.7 4.1.2 8.3.1 12.5.1 7.3 0 7.3 0 8.1 7.6zm364.7 68c0 2.1-1.1 3.4-2.3 4.6l-94.3 94.3c-3.2 3.2-5.8 3-8.9-.1-3.2-3.2-3-5.7.2-8.8l93.9-93.9c1.8-1.8 3.9-3.2 6.1-2 2.5 1.3 4.7 3.2 5.3 5.9zm-103.1 133.9c-4.9-.2-6.6-2.8-8.1-5.3-1.5-2.6.7-4.3 2.3-5.9l65.3-65.3 28.2-28.2c3.9-3.8 5.5-3.9 9.1-.3 3.4 3.4 3.3 5.4-.5 9.2l-92.8 92.8c-1.3 1.3-2.5 3.1-3.5 3zm-33.3-27.3c-2.9-.6-4.7-2.8-6.3-5.1-1.4-1.9-.5-3.8.9-5.4.5-.6 1.2-1.2 1.7-1.8l92.5-92.5c4.2-4.2 7.1-4.1 10.6.5 1.8 2.3 1.9 4.5-.2 6.7l-1.8 1.8-92.5 92.5c-1.4 1.3-2.6 2.9-4.9 3.3z"/></g><use xlink:href="#B" fill="#fff"/><g fill="#8a8e8e"><use xlink:href="#B"/><path d="M762.202 91.712c-.3.3-.6.6-1 .8-2.1 1.4-4.7 1.4-7.1 1.5-4.4.2-6.7 2.3-8 6.4-.8 2.5-2.1 4.8-3.2 7.1-.4-.1-.9-.1-.9-.3-3.1-8.6-8.3-14.2-18.3-13.2-.5 0-1 0-1.3-.3-.2-.2-.4-.5-.4-.9l8.1-8.2 1.4.1c1.9.4 3.3 1.8 3.5 3 .7 4.6 2.6 1.3 4.1 1 .3.3.8.6.8 1 .2 3.1 1.7 5.3 4.9 4.7s4.8-2.8 3.5-6.2c-.4-.9-.4-1.4.4-2.1.7-.5 2.8-.4 1.5-2.1-.8-1.1-2.1-.1-3.2 0-2.8.4-4.6 3.5-7.7 2.7.1-2 2.4-2.6 2.9-4.4.2-.9 1.7-1.4 1-2.5-.9-1.4-2-.6-3-.1l-8.1 3.7c-.4.2-.8.3-1.2.5 1-4.8-2.3-9.2-1.6-14.3 4.4 1.9 8.6 5.2 12.7 5.1 4-.1 7.8-3.7 13.2-6.5-5 10.7-1.9 18.2 7 23.5z"/></g><defs ><path id="B" d="M737.502 83.912c-.2-.4-.799-.8-1.099-.7-.5.2-.901.7-1.301 1.1.5.3.901.7 1.301 1 .7-.4 1.499-.6 1.099-1.4zm0 0c-.2-.4-.799-.8-1.099-.7-.5.2-.901.7-1.301 1.1.5.3.901.7 1.301 1 .7-.4 1.499-.6 1.099-1.4zm0 0c-.2-.4-.799-.8-1.099-.7-.5.2-.901.7-1.301 1.1.5.3.901.7 1.301 1 .7-.4 1.499-.6 1.099-1.4zm6.8 4.3c-1.1 0-1.899.6-2.099 1.7-.2 1.2.7 1.7 2 2 .6-.4 1.6-.6 1.7-1.8.1-1.1-.501-1.8-1.601-1.9zm17.901 3.5c-8.9-5.2-12-12.7-7.3-23.6-5.4 2.8-9.2 6.4-13.2 6.5-4.1.1-8.301-3.2-12.701-5.1-.7 5.2 2.6 9.5 1.6 14.3.4-.2.8-.4 1.2-.5l8.101-3.7c1-.5 2.1-1.2 3 .1.7 1.1-.7 1.6-1 2.5-.5 1.8-2.801 2.3-2.901 4.4 3.1.8 5.001-2.3 7.701-2.7 1.1-.2 2.4-1.1 3.2 0 1.4 1.7-.8 1.6-1.5 2.1-.8.6-.701 1.2-.401 2.1 1.4 3.4-.3 5.6-3.5 6.2s-4.7-1.6-4.9-4.7c0-.3-.5-.6-.8-1-1.5.2-3.399 3.5-4.099-1-.2-1.2-1.7-2.6-3.5-3l-1.401-.1-8.099 8.2c-.5.3-1.101.7-1.601 1 .7.3 1.4.2 2-.1.3.3.801.4 1.301.3 10.1-1 15.2 4.7 18.3 13.2.1.2.499.2.899.3 1.1-2.4 2.4-4.7 3.2-7.1 1.3-4 3.7-6.2 8-6.4 2.4-.1 5.001-.1 7.101-1.5.8.3 1.6.6 2.5.2-.2-.3-.7-.6-1.2-.9zm0 0c-8.9-5.2-12-12.7-7.3-23.6-5.4 2.8-9.2 6.4-13.2 6.5-4.1.1-8.301-3.2-12.701-5.1-.7 5.2 2.6 9.5 1.6 14.3.4-.2.8-.4 1.2-.5l8.101-3.7c1-.5 2.1-1.2 3 .1.7 1.1-.7 1.6-1 2.5-.5 1.8-2.801 2.3-2.901 4.4 3.1.8 5.001-2.3 7.701-2.7 1.1-.2 2.4-1.1 3.2 0 1.4 1.7-.8 1.6-1.5 2.1-.8.6-.701 1.2-.401 2.1 1.4 3.4-.3 5.6-3.5 6.2s-4.7-1.6-4.9-4.7c0-.3-.5-.6-.8-1-1.5.2-3.399 3.5-4.099-1-.2-1.2-1.7-2.6-3.5-3l-1.401-.1-8.099 8.2c-.5.3-1.101.7-1.601 1 .7.3 1.4.2 2-.1.3.3.801.4 1.301.3 10.1-1 15.2 4.7 18.3 13.2.1.2.499.2.899.3 1.1-2.4 2.4-4.7 3.2-7.1 1.3-4 3.7-6.2 8-6.4 2.4-.1 5.001-.1 7.101-1.5.8.3 1.6.6 2.5.2-.2-.3-.7-.6-1.2-.9zm-16.201-1.5c.1-1.2-.6-1.9-1.7-1.9s-1.899.6-2.099 1.7c-.2 1.2.7 1.7 2 2 .7-.4 1.699-.6 1.799-1.8zm-8.5-6.3c-.2-.4-.799-.8-1.099-.7-.5.2-.901.7-1.301 1.1.5.3.901.7 1.301 1 .7-.4 1.499-.6 1.099-1.4zm4.5-25.8c-14.9-.2-27.8 12.4-27.9 27.3-.2 14.9 12.3 27.5 27.4 27.8 15.2.3 27.5-11.7 27.8-27 .3-15.6-11.7-27.9-27.3-28.1zm.901 50.6c-10.6.2-18.801-5.2-22.601-15-3.6-9.5-.6-20.3 7.2-26.3 8.2-6.2 19.501-6.6 27.401-.9 8.8 6.4 12.2 16.5 8.8 26.2-3.1 9.5-11.3 15.8-20.8 16zm12.099-40.7c-5.4 2.8-9.2 6.4-13.2 6.5-4.1.1-8.3-3.2-12.7-5.1-.7 5.2 2.601 9.5 1.601 14.3.4-.2.8-.4 1.2-.5l8.099-3.7c1-.5 2.1-1.2 3 .1.7 1.1-.7 1.6-1 2.5-.5 1.8-2.8 2.3-2.9 4.4 3.1.8 5-2.3 7.7-2.7 1.1-.2 2.4-1.1 3.2 0 1.4 1.7-.8 1.6-1.5 2.1-.8.6-.7 1.2-.4 2.1 1.4 3.4-.3 5.6-3.5 6.2s-4.699-1.6-4.899-4.7c0-.3-.5-.6-.8-1-1.5.2-3.401 3.5-4.101-1-.2-1.2-1.7-2.6-3.5-3l-1.399-.1-8.101 8.2c-.5.3-1.099.7-1.599 1 .7.3 1.4.2 2-.1.3.3.799.4 1.299.3 10.1-1 15.2 4.7 18.3 13.2.1.2.501.2.901.3 1.1-2.4 2.4-4.7 3.2-7.1 1.3-4 3.7-6.2 8-6.4 2.4-.1 4.999-.1 7.099-1.5.8.3 1.6.6 2.5.2-.5-.3-1-.7-1.5-1-8.7-5.1-11.8-12.6-7-23.5zm-10.799 24c.6-.4 1.6-.6 1.7-1.8s-.6-1.9-1.7-1.9-1.901.6-2.101 1.7c-.1 1.2.801 1.6 2.101 2zm-6.701-8.1c-.2-.4-.799-.8-1.099-.7-.5.2-.901.7-1.301 1.1.5.3.901.7 1.301 1 .7-.4 1.499-.6 1.099-1.4zm0 0c-.2-.4-.799-.8-1.099-.7-.5.2-.901.7-1.301 1.1.5.3.901.7 1.301 1 .7-.4 1.499-.6 1.099-1.4zm6.8 4.3c-1.1 0-1.899.6-2.099 1.7-.2 1.2.7 1.7 2 2 .6-.4 1.6-.6 1.7-1.8.1-1.1-.501-1.8-1.601-1.9zm0 0c-1.1 0-1.899.6-2.099 1.7-.2 1.2.7 1.7 2 2 .6-.4 1.6-.6 1.7-1.8.1-1.1-.501-1.8-1.601-1.9zm-6.8-4.3c-.2-.4-.799-.8-1.099-.7-.5.2-.901.7-1.301 1.1.5.3.901.7 1.301 1 .7-.4 1.499-.6 1.099-1.4z"/></defs></svg>