<svg xmlns="http://www.w3.org/2000/svg" viewBox="0 0 360.61 53.57" fill="#8a8e8e" xmlns:v="https://vecta.io/nano"><path d="M25.35 0c16.13 0 25.34 11.88 25.34 26.79s-9.21 26.78-25.34 26.78S0 41.69 0 26.79 9.22 0 25.35 0zm0 42.05c8.64 0 11.95-7.56 11.95-15.26S34 11.52 25.35 11.52s-12 7.56-12 15.27 3.36 15.26 12 15.26zM58.68 1.08h13.39v19.73L89 1.08h16.63l-19 20.23L108 52.49H91.37l-13.82-21.6-5.48 5.76v15.84H58.68zm88.2 18.36c-.79-5.18-4.68-7.92-10.37-7.92-8.64 0-11.95 7.56-11.95 15.27s3.31 15.26 11.95 15.26c6.34 0 9.87-3.53 10.37-9.5h13.4c-.8 13.32-10.45 21-23.48 21-15.62 0-25.63-11.88-25.63-26.78S121.18 0 136.8 0c11.2 0 23.12 7.06 23.48 19.44zm16.27-18.36h40.76v4.18H186v47.23h-4.9V5.26h-17.95zm40.11 34.06c0 6.62 3.6 14.62 12.24 14.62 6.62 0 10.22-3.82 11.66-9.51h4.54c-1.95 8.43-6.77 13.32-16.2 13.32-11.81 0-16.78-9.07-16.78-19.65 0-9.8 5-19.66 16.78-19.66s16.7 10.44 16.34 20.88zm24.05-3.82c-.22-6.84-4.54-13.25-11.81-13.25-7.49 0-11.45 6.48-12.24 13.25zM264.89 27c-1.22-5.54-4.54-8.93-10.51-8.93-8.64 0-13 8-13 15.85s4.4 15.84 13 15.84c5.54 0 10.22-4.47 10.8-10.59h4.53c-1.22 9-7 14.4-15.33 14.4-11.31 0-17.57-9-17.57-19.65s6.26-19.66 17.57-19.66c8 0 14 4.17 15.05 12.74zM276.7 1.08h4.53v20.67h.15c1.72-4.47 6.62-7.49 11.88-7.49 10.44 0 13.61 5.47 13.61 14.33v23.9h-4.54V29.31c0-6.34-2.09-11.24-9.43-11.24s-11.45 5.48-11.67 12.75v21.67h-4.53zm46.63 6.32h2.23v9.45H335v2.22h-9.44v9.45h-2.23v-9.45h-9.44v-2.22h9.44zm25.61 0h2.22v9.45h9.45v2.22h-9.45v9.45h-2.22v-9.45h-9.45v-2.22h9.45z"/></svg>