<svg xmlns="http://www.w3.org/2000/svg" width="746" height="187" fill="#8a8e8e" xmlns:v="https://vecta.io/nano"><path d="M288.5 68.9v57.4h-12.3V68.9H264V57.6h36.8v11.3h-12.3zm25.4 57.4V57.6h31.9v11.3h-19.6v16.3h14.7V96h-14.7v19h19.6v11.3h-31.9zm72 .1h-16.1c-6 0-10.3-4.3-10.3-10.4V67.7c0-6 4.3-10.3 10.3-10.3h16.1c6.1 0 10.4 4.3 10.4 10.3v10.7H384v-9.1c0-.3-.2-.4-.4-.4h-11.5c-.3 0-.4.1-.4.4v45.3c0 .2.1.4.4.4h11.5c.2 0 .4-.2.4-.4v-9.2h12.3V116c0 6.1-4.3 10.4-10.4 10.4zm50.5-.1v-30h-12.3v30h-12.3V57.6h12.3V85h12.3V57.6h12.3v68.6h-12.3v.1zm29.4 0V57.6h4.9v64.1h19.6v4.5h-24.5v.1zm66.5-12.5h-21.2l-2.5 12.5h-5.1l14.7-68.6h7.1l14.7 68.6h-5.1l-2.6-12.5zm-1-4.5l-9.5-46.1-.1-.9-.1.9-9.5 46.1h19.2zm48.7 17v-34h-19.6v34h-4.9V57.6h4.9v30.1H580V57.6h4.9v68.6H580v.1zm43.4 0h-9.8a9.82 9.82 0 0 1-9.8-9.8v-49a9.82 9.82 0 0 1 9.8-9.8h9.8a9.82 9.82 0 0 1 9.8 9.8v49c0 5.4-4.5 9.8-9.8 9.8zm0-64.1h-9.8c-2.6 0-4.9 2.2-4.9 4.9v49.8c0 2.7 2.3 4.9 4.9 4.9h9.8a4.91 4.91 0 0 0 4.9-4.9V67.1c0-2.8-2.2-4.9-4.9-4.9zm64.7 64.1V65.2l-.3 1.5-13.8 49.8h-3.1l-13.7-49.8-.3-1.5v61.1H652V57.6h7.5l13 47.8 13-47.8h7.5v68.6h-4.9v.1zm49.3-12.5h-21.2l-2.5 12.5h-5.1l14.7-68.6h7.1l14.7 68.6H740l-2.6-12.5zm-1-4.5l-9.5-46.1-.1-.9-.1.9-9.5 46.1h19.2zm-706.7-42h10.8l5.3-5.4V47.5L45.7 25 35.2 35.1v10.4 2.7l-5.5 5.5v13.6zM0 126.5l1.8 1.8 3.5-3.5h5.2v2.6H6.2L5 128.5v3h-.1l3.1 3.1h16.9L0 109.9v16.6zM249 26.1h-7.1l-3 3v2.2h-17.1l-16.1-16.1h-20.3V7.5L159.1 0h-53.9L49.4 44.7v18.7L42 70.8H26.1V52.2l5.5-5.4v-1.2h-3.4L0 74.5v31l9.7 9.7V93.8l8.7-7.6h4.8V82l3.6-3.6h8.5l3.6 3.6v8.5l-3.6 3.6h-8.5l-3.6-3.6v-.7h-3.4l-6.5 5.6v23.3l34 33.8 15.4-15.2 49.4 49.1h17.1v-12.2h30.4l14.6-14.6h20.9v2.1l3 2.9h7l2.9-2.9v-7l-2.9-2.9h-7l-3 2.9v2.2h-22l-14.6 14.6h-29.3v-7.1h23.6l6.2-6.2V96.7h20.7l9-9h43.7v2.2l3 2.9h7l2.9-2.9v-7l-2.9-2.9h-7l-3 2.9V85h-44.9l-9 9h-19.6V82.3H170l14-14h27v2.1l3.1 3h7.1l3-3v-7.1l-3-3h-7.1l-3.1 3v2.4h-28.2l-14 14H159V32.5h19.9l6.5-6.7v-7.9h19.2L220.7 34h18.2v2.2l3 3h7.1l3-3V29l-3-2.9zM64.9 82.5H52.2v-3.6h11.2l5.7-6-1-2.1H52.2v-3.6h18.2l3 6.4-8.5 8.9zM197 155.8l2.1-2h4.8l2 2v4.8l-2 2h-4.8l-2.1-2v-4.8zM234.5 84l2.1-2h4.9l2 2v4.9l-2 2h-4.9l-2.1-2V84zM213 64.4l2.1-2.1h5l2.1 2.1v5l-2.1 2.1h-5l-2.1-2.1v-5zm37-29.3l-2.1 2.1H243l-2.1-2.1v-4.9l2.1-2.1h4.9l2.1 2.1v4.9zM33.9 90.6l1.4-1.5v-5.6l-1.4-1.4h-5.6l-1.5 1.5v5.5l1.5 1.5h5.6z"/></svg>