<svg xmlns="http://www.w3.org/2000/svg" width="110" height="110" fill="none" xmlns:v="https://vecta.io/nano"><g stroke="#5d46ef" stroke-width="4"><rect x="2" y="2" width="106" height="106" rx="16"/><path d="M22 22h66a6 6 0 0 1 6 6v44.125C94 75.37 91.37 78 88.125 78H22a6 6 0 0 1-6-6V28a6 6 0 0 1 6-6z"/><path d="M55 78v8.5m-9.25.75h18.5" stroke-linecap="round"/></g><path d="M32 52h2.325v-3H32v3zm6.975 0h4.65v-3h-4.65v3zm9.3 0h4.65v-3h-4.65v3zm9.3 0h4.65v-3h-4.65v3zm9.3 0h4.65v-3h-4.65v3zm9.3 0H78.5v-3h-2.325v3z" fill="#5d46ef"/><path d="M71 43l7.5 7.5m-39-7.5L32 50.5M71 58l7.5-7.5m-39 7.5L32 50.5" stroke="#5d46ef" stroke-width="3" stroke-linecap="square"/></svg>