<svg xmlns="http://www.w3.org/2000/svg" width="110" height="110" fill="none" xmlns:v="https://vecta.io/nano"><g stroke="#5d46ef"><rect x="2" y="2" width="106" height="106" rx="16" stroke-width="4"/><g stroke-width="2"><path d="M65.132 66.132l8.253 8.253M37.322 38.322l8.96 8.96" stroke-linecap="round"/><circle cx="76.92" cy="77.92" r="5" transform="rotate(45 76.92 77.92)"/><circle cx="33.08" cy="34.08" r="5" transform="rotate(45 33.08 34.08)"/></g></g><path d="M30.242 109.555a2 2 0 0 0 2.515-3.11l-2.515 3.11zM29 86l-1.414-1.414h0L29 86zm27.461-20.608a2 2 0 0 0-3.922-.784l3.922.784zm-23.704 41.053c-.739-.598-1.393-1.236-1.966-1.903l-3.034 2.607c.732.851 1.559 1.657 2.485 2.406l2.515-3.11zm-4.636-6.588c-.594-1.774-.807-3.6-.686-5.337l-3.99-.277a17.83 17.83 0 0 0 .884 6.884l3.793-1.27zm.771-10.409c.432-.772.944-1.456 1.522-2.034l-2.828-2.828c-.857.857-1.587 1.841-2.185 2.91l3.491 1.952zm1.522-2.034a16.1 16.1 0 0 1 1.95-1.654l-2.346-3.24a20.08 20.08 0 0 0-2.433 2.065l2.828 2.828zm6.612-4.275l5.247-2.232-1.571-3.679-5.34 2.273 1.664 3.637zm10.655-4.937c1.756-1.086 3.422-2.412 4.849-4.142l-3.086-2.545c-1.087 1.318-2.39 2.372-3.867 3.286l2.104 3.402zm7.962-9.769c.328-.947.601-1.959.818-3.041l-3.922-.784c-.183.916-.411 1.752-.676 2.518l3.78 1.308z" fill="#5d46ef" fill-opacity=".3"/><path stroke="#5d46ef" stroke-width="4" d="M46 46h19v19H46z"/></svg>